<?xml version="1.0" encoding="UTF-8" standalone="no"?>
<!-- Created with Inkscape (http://www.inkscape.org/) -->

<svg
   version="1.1"
   id="svg836"
   width="834.5426"
   height="1276.9341"
   viewBox="0 0 834.5426 1276.9341"
   sodipodi:docname="chess"
   xmlns:inkscape="http://www.inkscape.org/namespaces/inkscape"
   xmlns:sodipodi="http://sodipodi.sourceforge.net/DTD/sodipodi-0.dtd"
   xmlns="http://www.w3.org/2000/svg"
   xmlns:svg="http://www.w3.org/2000/svg">
  <defs
     id="defs840" />
  <sodipodi:namedview
     id="namedview838"
     pagecolor="#ffffff"
     bordercolor="#000000"
     borderopacity="0.25"
     inkscape:showpageshadow="2"
     inkscape:pageopacity="0.0"
     inkscape:pagecheckerboard="0"
     inkscape:deskcolor="#d1d1d1"
     showgrid="false" />
  <g
     inkscape:groupmode="layer"
     inkscape:label="Image"
     id="g842"
     transform="translate(-91.95739,-93)">
    <path
       style="fill:#000000"
       d="m 645.16663,1367.9752 c -1.73949,-1.6464 -2.04467,-2.4969 -1.19905,-3.3418 1.45663,-1.4554 12.78457,-1.0894 20.03242,0.6473 5.41982,1.2986 5.46356,1.3381 3,2.7072 -1.375,0.7642 -6.325,1.5708 -11,1.7926 -7.70015,0.3652 -8.71957,0.1953 -10.83337,-1.8053 z m -110.77864,-6.1076 c 4.91964,-2.9222 27.68143,-6.407 26.20083,-4.0113 -1.09521,1.7721 -10.33868,3.9201 -19.58882,4.552 -6.52854,0.446 -8.06211,0.3206 -6.61201,-0.5407 z M 593,1361.0674 c 0,-2.6184 2.321,-3.1546 9.93131,-2.2944 6.12638,0.6925 6.3482,0.81 4.67857,2.477 -1.30546,1.3034 -3.39324,1.75 -8.18131,1.75 -5.68718,0 -6.42857,-0.2229 -6.42857,-1.9326 z m 0.54715,-5.9911 c -0.72669,-1.1758 8.18109,-4.5287 16.24814,-6.1158 7.51704,-1.4789 14.22131,-0.8567 17.94028,1.665 l 2.76443,1.8745 -9,0.6283 c -4.95,0.3455 -11.025,1.122 -13.5,1.7255 -5.52619,1.3475 -13.67996,1.4731 -14.45285,0.2225 z m 134.26286,-7.6852 c 4.98989,-2.1796 11.88754,-2.887 13.67605,-1.4027 2.93612,2.4368 1.42062,3.0108 -7.73606,2.93 -8.9582,-0.079 -9.14558,-0.1272 -5.93999,-1.5273 z M 759.5,1346.0656 c -2.71456,-0.6314 -2.4767,-0.7728 2.5,-1.4855 3.025,-0.4333 10.80475,-1.857 17.28832,-3.1637 21.35741,-4.3047 32.04712,-4.2044 37.67576,0.3534 2.0935,1.6952 1.92251,1.7521 -6.14636,2.0434 -4.56487,0.1647 -13.22519,0.9492 -19.24516,1.7432 -11.28922,1.4889 -26.80141,1.7352 -32.07256,0.5092 z m -292,-5.548 c 7.17608,-2.0891 22.49742,-4.3033 41.50544,-5.9981 9.078,-0.8094 18.078,-1.7761 20,-2.1483 3.45183,-0.6683 3.47258,-0.6517 1.69667,1.3578 -3.36655,3.8093 -12.3673,5.3701 -36.55426,6.3391 -12.45632,0.499 -24.67285,1.1318 -27.14785,1.4062 l -4.5,0.4989 z m 284.12678,-2.2241 c -3.98152,-3.9816 14.82277,-7.4686 20.15071,-3.7368 3.33358,2.3349 2.6837,3.3398 -1.52749,2.3618 -5.66724,-1.316 -12.01904,-1.0893 -15.17288,0.5416 -1.55295,0.8031 -3.1056,1.1781 -3.45034,0.8334 z m -208.52426,-3.4305 c -3.12755,-0.9174 -3.26916,-1.1249 -1.78242,-2.6117 2.11949,-2.1195 16.82724,-2.7988 16.03748,-0.7408 -1.08984,2.8401 -9.36642,4.7866 -14.25506,3.3525 z M 636,1332.9254 c 0,-1.3983 7.45661,-7.2398 11.55677,-9.0535 5.27776,-2.3346 15.73865,-4.5434 25.86264,-5.4608 8.9774,-0.8135 9.84206,0.607 1.57643,2.5899 -5.56156,1.3342 -9.42656,5.0666 -8.44597,8.1561 0.82648,2.604 -1.12023,2.2887 -3.24279,-0.5252 l -1.78629,-2.3682 -3.2382,2.4699 c -2.50275,1.909 -5.40085,2.747 -12.76039,3.69 -5.23721,0.671 -9.5222,0.8968 -9.5222,0.5018 z m 162.09783,-0.7426 c -1.00093,-1.8703 -0.62955,-2.0161 6.8113,-2.6748 7.99874,-0.708 12.09307,0.2326 12.08886,2.7772 -10e-4,0.8374 -2.77321,1.3175 -8.92176,1.5452 -8.05093,0.2983 -9.02287,0.1378 -9.9784,-1.6476 z M 400,1329.5046 c 0,-3.1148 2.20542,-4.6607 7.50055,-5.2576 3.63431,-0.4096 4.49945,-0.2058 4.49945,1.0601 0,1.2326 0.74726,1.4459 3.5,0.9992 2.80143,-0.4546 3.5,-0.2425 3.5,1.0629 0,1.3136 -1.11847,1.6393 -5.75,1.6747 -3.1625,0.024 -7.4375,0.6461 -9.5,1.3822 -3.62182,1.2925 -3.75,1.261 -3.75,-0.9215 z m -57.6109,0.5157 c -1.16099,-0.4691 -2.36439,-1.5135 -2.67422,-2.3209 -0.83392,-2.1732 7.0926,-3.3205 9.09642,-1.3167 3.31566,3.3157 -1.07048,5.8 -6.4222,3.6376 z m 337.37668,-3.0496 c 3.6153,-3.2886 6.96028,-3.8481 7.92808,-1.3261 0.91299,2.3792 -2.35491,4.3606 -7.13499,4.3261 l -4.05887,-0.029 3.26578,-2.9707 z M 468,1324 c 0,-3.5072 0.28333,-4 2.3,-4 1.265,0 2.82525,-0.5252 3.46722,-1.1672 1.96601,-1.966 2.57333,1.608 0.84212,4.9558 -1.41583,2.7379 -3.40709,4.2114 -5.69113,4.2114 C 468.4132,1328 468,1326.2 468,1324 Z m -162,0.2726 c -3.46117,-0.6299 -6,-3.1381 -6,-5.9276 0,-2.6891 0.82489,-2.8119 7.90735,-1.177 3.54101,0.8173 5.74025,0.8589 7.32629,0.1386 2.09888,-0.9533 2.27168,-0.7864 2.33831,2.2581 0.0668,3.0535 -0.23165,3.364 -4.19282,4.3614 -2.34563,0.5907 -4.403,1.0126 -4.57195,0.9377 -0.16895,-0.075 -1.43218,-0.3409 -2.80718,-0.5912 z m -79.25,-4.9507 c -0.9625,-0.2577 -1.75,-1.0947 -1.75,-1.86 0,-5.0793 18.59531,-4.8492 24.96529,0.3089 2.0799,1.6842 1.74514,1.7495 -9.65534,1.8822 -6.49547,0.076 -12.59745,-0.073 -13.55995,-0.3311 z m 326.75,-0.025 c -2.75,-0.1884 -17.15,-1.2507 -32,-2.3607 -14.85,-1.11 -36.39692,-2.297 -47.88204,-2.6378 -20.73436,-0.6152 -20.8578,-0.632 -17.45468,-2.3779 6.59851,-3.3853 14.85307,-4.0626 43.58143,-3.5759 l 27.55669,0.4668 1.25055,2.9742 c 0.6878,1.6358 1.65869,3.2264 2.15752,3.5347 0.49883,0.3083 6.9687,-0.5023 14.37748,-1.8014 7.40878,-1.2991 27.18258,-3.7568 43.94178,-5.4617 16.7592,-1.7048 31.48377,-3.3676 32.72127,-3.6951 2.05583,-0.5441 2.25,-0.2524 2.25,3.3794 v 3.9748 l -13.25,0.5879 c -11.52879,0.5116 -27.34692,3.0266 -33.08385,5.2601 -1.43914,0.5603 -1.54675,0.8959 -0.5,1.5595 1.28039,0.8116 -12.83786,0.9149 -23.66615,0.1731 z m -228.83333,-0.9637 c -2.56349,-2.5634 1.79085,-4.7918 7.23565,-3.7028 4.13926,0.8278 3.90393,1.8114 -0.76834,3.2112 -4.4522,1.3339 -5.54217,1.4168 -6.46731,0.4916 z m 96.98859,-2.146 c -3.51078,-1.4843 3.29648,-3.4236 13.84474,-3.9441 5.5,-0.2714 10.7875,-0.9029 11.75,-1.4035 2.53218,-1.3168 2.28806,1.3634 -0.34088,3.7425 -1.7319,1.5674 -3.9209,1.9346 -12.75,2.1387 -5.86251,0.1355 -11.48925,-0.1046 -12.50386,-0.5336 z m 227.75647,-4.4472 c 0.59954,-3.9981 0.41093,-4.7509 -1.5311,-6.1112 l -2.21488,-1.5513 2.91712,-1.1498 c 2.70027,-1.0644 25.36622,-2.9693 26.35761,-2.2152 0.24226,0.1843 -0.34066,1.1118 -1.29538,2.0612 -1.41482,1.407 -3.42862,1.7001 -10.88883,1.5849 -8.12789,-0.1255 -8.87877,0.01 -6.70462,1.1872 4.42631,2.4019 15.91461,3.7517 25.93792,3.0475 5.23074,-0.3675 18.39636,-2.0013 29.25694,-3.6308 24.2065,-3.6317 27.75349,-3.7483 27.75349,-0.9116 0,4.8813 -13.38575,7.2409 -53.5,9.4308 -15.4,0.8408 -29.97371,1.8187 -32.38602,2.1733 l -4.38603,0.6447 z m 151.33827,2.1798 c -0.9625,-0.5606 -1.75,-1.7276 -1.75,-2.5934 0,-1.2966 0.96942,-1.4938 5.49884,-1.1182 6.42551,0.5329 7.74226,1.411 5.05846,3.3735 -2.25133,1.6462 -6.29494,1.8014 -8.8073,0.3381 z M 634,1308.324 c -1.74013,-0.6712 -6.00184,-4.4014 -5.9961,-5.2483 0.002,-0.3166 3.55941,-0.6235 7.90503,-0.6818 7.49214,-0.1007 7.95975,0.023 9.03354,2.3792 0.62283,1.3669 1.00306,2.6013 0.84497,2.7431 -0.73114,0.6554 -10.45472,1.3219 -11.78744,0.8078 z m -205.64376,-2.0914 c 0.36939,-0.5977 2.12785,-1.5618 3.90769,-2.1424 5.52169,-1.8014 23.0181,-5.1417 23.64308,-4.5138 0.96294,0.9674 -3.77247,4.2892 -7.73703,5.4274 -5.63968,1.6191 -20.6295,2.5487 -19.81374,1.2288 z M 682,1302.0618 l -4.5,-0.6379 4,-1.1908 c 4.41943,-1.3157 20.5,-2.1487 20.5,-1.0619 0,0.3772 -0.70714,1.3931 -1.57143,2.2574 -1.65371,1.6537 -9.36076,1.9185 -18.42857,0.6332 z m 128,0.016 c -6.21894,-0.5524 -6.39235,-0.6385 -4.01049,-1.9908 2.80626,-1.5932 13.74503,-1.9187 21.51049,-0.6402 l 5,0.8233 -3,1.32 c -3.09245,1.3608 -8.22623,1.4892 -19.5,0.4877 z m -373,-4.6177 c -2.475,-0.7035 -5.2875,-1.0644 -6.25,-0.802 -2.18057,0.5945 -2.32952,-1.2213 -0.16821,-2.0507 2.56509,-0.9843 12.38722,-0.694 14.48395,0.4282 1.06384,0.5693 1.93426,1.6943 1.93426,2.5 0,1.7736 -3.58983,1.7465 -10,-0.075 z m -190.99706,-1.2113 c -4.20077,-2.1002 -5.07362,-4.7746 -1.80201,-5.5211 1.26449,-0.2886 3.7444,-1.1124 5.5109,-1.8308 3.95717,-1.6093 5.236,-0.6013 2.73847,2.1584 -1.60287,1.7712 -1.66166,2.2031 -0.41054,3.0161 0.80313,0.5219 2.47274,0.7109 3.71024,0.4199 2.75529,-0.6478 2.97225,1.0522 0.31574,2.4739 -2.81129,1.5046 -6.08718,1.2714 -10.0628,-0.7164 z M 772,1290.3919 c 0,-0.2543 0.6972,-1.5263 1.54933,-2.8268 3.95899,-6.0422 15.28115,-10.6674 39.17666,-16.0039 23.30821,-5.2054 22.94962,-4.5732 -1.72599,3.043 -19.15999,5.9137 -26.59085,8.7775 -33.37415,12.8622 -3.09422,1.8632 -5.62585,3.1797 -5.62585,2.9255 z m -511.67689,-2.1057 c 0.99186,-1.6048 8.89072,-3.4621 13.22195,-3.1088 3.90748,0.3187 3.92583,0.3392 1.52915,1.7019 -2.96115,1.6836 -15.67135,2.8959 -14.7511,1.4069 z m 559.19501,-0.2569 c -0.82186,-1.3298 3.63003,-2.3206 8.38803,-1.8669 4.76586,0.4545 4.485,-0.6788 -0.3951,-1.5944 -1.93108,-0.3622 -3.51105,-1.124 -3.51105,-1.6928 0,-0.6111 1.22709,-0.7971 3,-0.4547 1.65,0.3187 4.35,0.8403 6,1.159 3.40829,0.6583 3.94019,2.847 1.06574,4.3853 -2.44686,1.3095 -13.74719,1.3596 -14.54762,0.064 z M 498.5,1285.9742 c -59.77485,-2.396 -113.85185,-7.5659 -147.5,-14.1014 -19.27701,-3.7442 -38.41601,-8.5185 -75,-18.7094 -15.675,-4.3664 -35.475,-9.5479 -44,-11.5145 -14.70663,-3.3925 -15.66321,-3.7615 -18.68854,-7.2077 -4.12367,-4.6975 -6.31711,-11.1002 -7.00267,-20.4412 -0.67908,-9.2526 0.49695,-17.411 5.83803,-40.5 4.40426,-19.0392 6.08218,-22.5182 9.8803,-20.4855 2.70314,1.4467 4.97288,1.2018 4.97288,-0.5365 0,-0.8371 -2.1375,-2.8294 -4.75,-4.4273 -2.6125,-1.598 -6.01801,-3.8975 -7.5678,-5.1102 -3.3619,-2.6307 -4.51153,-1.8483 -5.35727,3.6458 -1.12764,7.3254 -1.43402,7.3614 -13.5506,1.5922 -7.55781,-3.5986 -7.72619,-3.7586 -7.75,-7.3631 -0.0134,-2.0266 -0.69138,-6.8557 -1.50666,-10.7314 -1.04536,-4.9695 -1.19275,-7.8084 -0.5,-9.6305 1.26837,-3.336 1.25236,-3.4535 -0.47067,-3.4535 -3.72367,0 -4.76935,-17.1341 -1.60668,-26.3265 3.83306,-11.141 10.55857,-18.3566 30.36201,-32.5745 l 11.64004,-8.357 -0.55841,-5.621 c -0.68616,-6.9069 0.98844,-10.0624 4.37748,-8.2487 1.15671,0.6191 2.38791,2.0229 2.736,3.1196 0.59272,1.8675 0.99852,1.7458 6.39218,-1.9169 6.40172,-4.3474 11.4805,-9.6863 13.75845,-14.4632 0.82753,-1.7353 3.24082,-4.1544 5.36286,-5.3757 6.52749,-3.7567 15.7635,-13.088 21.52481,-21.74665 7.37104,-11.078 13.78485,-25.06052 22.2422,-48.48945 9.12153,-25.26884 12.31924,-33.24877 17.26572,-43.08684 3.76237,-7.48297 4.4288,-8.23486 9.14284,-10.3153 4.99951,-2.20643 5.14456,-2.21348 8.66053,-0.42093 4.10113,2.09087 9.30303,2.31769 15.7757,0.68785 5.63256,-1.41829 7.86857,-4.43237 6.94408,-9.36037 C 358.96395,881.29092 359.10822,881 361.30465,881 c 3.40104,0 9.90766,-5.02914 14.50597,-11.21205 2.16299,-2.90837 7.47796,-11.54544 11.81104,-19.19347 6.13572,-10.82975 9.4918,-15.52474 15.17273,-21.22595 10.77833,-10.81679 12.66612,-15.95456 18.16094,-49.42648 3.85549,-23.48582 6.50468,-31.87339 10.72049,-33.94205 2.99628,-1.47025 3.06816,-1.6785 3.624,-10.5 0.3119,-4.95 1.7363,-13.275 3.16534,-18.5 5.93063,-21.68413 8.48257,-32.16741 9.05253,-37.18745 0.98591,-8.68358 1.42359,-10.04906 3.02418,-9.43486 1.18952,0.45647 1.45813,-0.69472 1.45813,-6.24911 0,-7.60382 2.83356,-20.00487 5.89797,-25.81242 1.90946,-3.61873 2.01592,-3.678 2.05783,-1.14563 0.0859,5.19057 -4.96857,32.1471 -11.03897,58.87309 -3.38047,14.88312 -5.9115,27.29504 -5.6245,27.58204 0.28699,0.287 1.80113,-0.12463 3.36474,-0.91472 1.56361,-0.79009 3.30652,-1.26874 3.87314,-1.06366 0.56661,0.20507 2.20619,-2.66917 3.64351,-6.38721 10.32545,-26.70981 13.29775,-49.53509 7.84282,-60.22764 -1.70425,-3.34062 -1.76814,-3.9937 -0.49411,-5.05105 0.80477,-0.66789 1.95243,-3.03117 2.55037,-5.25173 1.36831,-5.08151 0.0727,-10.70326 -4.57401,-19.84757 -2.58625,-5.08948 -3.08994,-6.89025 -2.18087,-7.79703 1.66136,-1.65718 2.66956,-43.02164 1.03323,-42.39127 -0.63187,0.24341 -1.40197,0.033 -1.71134,-0.46757 C 455.63269,572.59666 454.28074,562 455.07996,562 c 1.54972,0 3.92075,3.19388 3.95045,5.32143 0.029,2.07843 0.0814,2.09076 1.13942,0.26824 0.84003,-1.44702 0.66362,-4.17553 -0.72737,-11.25 C 457.46873,546.30141 456,544.23656 456,551.5 c 0,4.46311 -1.22632,5.95857 -2.39301,2.91821 C 453.27314,553.54823 453,550.72336 453,548.14072 c 0,-2.63152 -0.68431,-5.6727 -1.5567,-6.91821 C 449.97824,539.13084 450.01405,539 452.0517,539 c 2.43396,0 2.42583,-0.0866 -1.15129,-12.25 -2.05383,-6.98369 -2.79662,-7.78491 -4.88472,-5.2689 -1.00279,1.20829 -0.65382,2.34977 1.89462,6.19721 2.84131,4.28959 2.9811,4.85656 1.54564,6.26891 -1.42725,1.40428 -1.69959,1.3893 -2.84761,-0.1566 -0.69818,-0.94016 -1.88225,-4.26393 -2.63126,-7.38615 l -1.36183,-5.67677 2.79143,-2.40109 c 3.3651,-2.89454 3.08534,-4.88968 -1.67441,-11.94126 -2.07391,-3.07249 -3.96603,-4.82861 -5.09896,-4.73246 -1.37992,0.11713 -1.66657,-0.3508 -1.22516,-2 2.11378,-7.8976 2.13308,-7.35344 -0.18814,-5.30493 -2.12476,1.87513 -4.22001,1.53515 -4.22001,-0.68474 0,-0.6703 0.9,-1.98934 2,-2.93119 3.11188,-2.66448 2.40406,-4.29746 -2.80024,-6.46027 -4.10575,-1.70627 -4.97211,-2.56856 -5.98824,-5.96009 -1.83701,-6.13141 -8.26181,-15.32035 -18.43148,-26.36128 -23.78014,-25.81742 -29.02474,-32.64301 -32.76662,-42.64406 -4.52122,-12.08405 -1.89452,-23.24891 7.84753,-33.35612 5.79256,-6.00968 6.7591,-5.85207 9.59132,1.56398 0.94223,2.4672 2.11645,4.48581 2.60938,4.48581 0.49294,0 4.16822,-1.09203 8.1673,-2.42674 6.85214,-2.28693 20.40867,-4.28523 32.77105,-4.83062 l 5.5,-0.24264 0.29828,-6.27168 c 0.22187,-4.66502 0.74631,-6.55147 2.04719,-7.36389 1.54613,-0.96557 0.81585,-2.04457 -6.29828,-9.30582 -6.92312,-7.06629 -17.63149,-22.35933 -28.80957,-41.14409 -1.32857,-2.23267 1.10413,-2.57277 3.22591,-0.45099 2.55715,2.55715 2.5583,1.97966 0.006,-3.02323 -1.11675,-2.18901 -3.37178,-9.59267 -5.01119,-16.45256 -3.49068,-14.60636 -6.28553,-22.51161 -9.0849,-25.69674 l -2.01352,-2.291 0.53481,8.5 c 0.29415,4.675 1.67008,12.55 3.05762,17.5 1.38753,4.95 2.50965,9.45 2.49359,10 -0.0161,0.55 -1.52308,-0.69029 -3.34892,-2.75621 -8.80909,-9.96734 -11.54962,-38.16068 -6.62342,-68.13863 4.70945,-28.65894 33.79924,-79.45295 55.28038,-96.5257 8.15255,-6.47947 22.62921,-13.99914 35.74601,-18.56769 18.94788,-6.59951 55.28014,-16.133405 58.54869,-15.363686 11.48963,2.705717 12.8787,2.771671 15.08158,0.716079 C 559.30386,95.369346 567.02305,93 572.47743,93 c 5.0962,0 14.13035,2.588703 17.56782,5.033997 1.39989,0.99583 6.79989,2.803883 12,4.017893 27.46564,6.4121 47.86465,17.50887 64.39121,35.0279 11.66248,12.36285 19.52858,25.79061 25.68064,43.83795 7.10531,20.84371 7.64089,37.34653 2.38805,73.58226 -1.91352,13.2 -3.48497,26.73429 -3.49213,30.0762 L 691,290.65239 676.36329,311.5762 c -8.05019,11.50809 -17.2994,24.2988 -20.5538,28.4238 -6.85137,8.68422 -23.05598,25.3198 -28.81044,29.57666 -2.17347,1.60784 -3.96241,3.22894 -3.97541,3.60244 -0.013,0.37351 2.41678,1.18573 5.39952,1.80495 6.33581,1.31531 7.98527,2.86714 7.14807,6.72499 -0.5961,2.74688 -0.49001,2.8186 6.71714,4.54096 7.81643,1.86797 10.60747,2.11094 13.12984,1.14301 C 658.09718,386.365 657.18488,384.1418 653,381.5 c -7.10407,-4.48461 -4.13157,-9.26791 5.08133,-8.17677 12.6487,1.49805 27.95042,13.72665 37.26714,29.78262 3.20236,5.51878 7.26239,17.1164 8.21436,23.46458 0.64242,4.28392 0.45856,4.83181 -2.7715,8.25894 -1.90276,2.01885 -4.43421,4.96882 -5.62544,6.55549 L 693,444.26972 v -5.42476 c 0,-16.52568 -9.31796,-31.44548 -24.22087,-38.78216 -5.37485,-2.64603 -8.25449,-3.37592 -14.96722,-3.7937 C 645.47702,395.75036 634,397.33926 634,399.01188 c 0,1.54546 2.08442,2.22898 9.16886,3.00666 6.64465,0.72939 8.74124,1.40469 7.67415,2.47178 -0.26968,0.26968 -9.2723,1.03069 -20.00583,1.69113 -21.77948,1.3401 -50.82325,0.18217 -71.83718,-2.86405 -14.44215,-2.09355 -26.59425,-2.18617 -54.90426,-0.41843 -42.69645,2.66606 -72.25767,-0.70936 -87.47443,-9.98819 -12.73234,-7.76389 -26.80899,11.1964 -19.74058,26.58922 1.98234,4.31692 5.71484,8.23776 6.80462,7.14798 0.37021,-0.3702 -0.0826,-2.25771 -1.00613,-4.19446 C 400.51348,417.91191 400.48736,418 404,418 c 3.68052,0 3.76025,-1.13671 0.38967,-5.55577 -2.36395,-3.0993 -2.44551,-3.48557 -0.86408,-4.09242 3.45437,-1.32557 4.96666,0.98092 5.09461,7.77012 0.0661,3.50794 0.17862,6.88809 0.25,7.51144 0.15817,1.3811 3.78386,2.43661 5.76214,1.67747 1.23907,-0.47547 1.22564,-0.87864 -0.0965,-2.89642 C 413.69115,421.12519 413,419.65332 413,419.14359 c 0,-1.85386 5.01034,-2.10794 12.66887,-0.64245 10.62926,2.03395 13.56891,1.97779 13.14477,-0.25114 -0.22944,-1.20574 -1.57401,-1.90901 -4.32332,-2.26129 -3.34992,-0.42924 -2.46569,-0.71012 5.50968,-1.75022 23.20792,-3.02664 43.52819,-3.48452 104,-2.34347 61.62609,1.16283 71.33768,1.7615 86.5,5.33233 11.78716,2.77595 8.80011,3.80875 -8.77496,3.03404 -12.22535,-0.5389 -12.8769,-0.46736 -15.1445,1.66295 -2.59765,2.44037 -4.1553,1.46192 -3.0777,-1.93329 C 604.05322,418.25697 603.67436,418 600.56739,418 597.99488,418 597,418.43711 597,419.56739 c 0,1.11231 0.58068,1.38308 2,0.93261 1.55976,-0.49505 2,-0.1797 2,1.43261 V 424 l -67.25,0.0894 c -59.24073,0.0788 -66.65452,0.25493 -62.25,1.47914 10.83404,3.01128 25.75282,3.67732 53.30423,2.37972 39.31887,-1.85182 44.6791,-1.33438 77.6011,7.4911 19.5256,5.23428 31.24129,6.71379 42.86558,5.41327 4.46491,-0.49953 8.30057,-1.09079 8.52369,-1.31391 0.99087,-0.99088 -1.07511,-2.36878 -4.52093,-3.01522 -3.51805,-0.65999 -3.6299,-0.78987 -1.81991,-2.11336 2.33788,-1.70951 7.36508,-1.78932 16.60361,-0.26361 7.65121,1.26357 8.56263,2.50014 4.79706,6.5084 l -2.14557,2.28386 2.85654,1.08605 c 3.74614,1.42429 6.64324,0.60886 10.79828,-3.03931 1.87019,-1.64205 3.67454,-2.98555 4.00967,-2.98555 0.33513,0 0.51873,2.1375 0.408,4.75 -0.11072,2.6125 0.15242,5.50129 0.58478,6.41954 0.61949,1.3157 -0.13076,2.08375 -3.54002,3.62399 -5.62529,2.5414 -9.33405,6.68239 -15.85828,17.70647 -6.68623,11.2978 -10.60464,16.4159 -26.41313,34.5 -19.54716,22.36093 -23.43639,29.0065 -26.9209,46 -2.99054,14.58445 -3.86513,30.65821 -3.99922,73.5 -0.12253,39.15104 0.0221,43.30466 1.61542,46.40364 2.16684,4.21436 2.17551,5.19288 0.0784,8.8469 -2.52928,4.40703 -1.21242,6.64644 3.46826,5.89797 l 3.76336,-0.60179 0.0865,10.72664 c 0.0476,5.89965 0.81979,15.00164 1.71598,20.22664 2.18243,12.72405 2.09041,18.68871 -0.36252,23.5 -1.1,2.15759 -2,5.07428 -2,6.48154 0,5.89282 4.66501,18.69875 13.48528,37.01846 8.84042,18.36157 11.49111,25.35683 12.97826,34.25 0.67527,4.03816 2.95516,5.08091 3.82621,1.75 0.28766,-1.1 1.14897,-2 1.91402,-2 1.08208,0 1.30266,1.38809 0.99318,6.25 -0.37584,5.90455 -0.185,6.56124 3.45261,11.88105 2.11774,3.09708 6.90353,8.94644 10.63507,12.99858 5.72534,6.21722 6.61132,6.87034 5.67455,4.18311 -0.61055,-1.75142 -3.90684,-6.47578 -7.32508,-10.49857 -10.34941,-12.1798 -11.70097,-15.11403 -7.65176,-16.61193 1.88801,-0.69842 1.777,-1.18462 -2.33297,-10.21778 C 650.27595,809.76801 644.4236,798.525 639.64414,790 c -4.77946,-8.525 -9.99456,-18.88207 -11.58912,-23.01571 -3.17581,-8.23278 -6.46936,-22.85329 -5.78733,-25.69065 0.57284,-2.38306 12.91972,23.09028 24.81963,51.20636 20.72714,48.97228 35.10211,71.90957 55.08746,87.89982 9.72621,7.78194 21.11114,13.93283 32.68355,17.65781 4.59709,1.47974 7.89696,2.97558 7.33305,3.32409 -1.80424,1.11508 -13.96666,-1.14193 -23.79132,-4.41502 -5.23951,-1.74554 -9.71261,-2.98748 -9.94022,-2.75987 -1.19736,1.19736 3.16869,4.8412 7.5407,6.29335 2.7497,0.9133 4.99946,1.93289 4.99946,2.26574 0,0.33285 -0.99744,1.6669 -2.21654,2.96457 -1.69896,1.80847 -1.97416,2.74363 -1.17855,4.00493 1.77236,2.80978 3.36436,2.56727 4.74792,-0.72324 1.29654,-3.08356 1.3734,-2.89543 3.08975,7.56357 4.18633,25.51029 12.13344,54.31849 20.18388,73.16643 9.688,22.68182 18.52699,35.25612 31.39965,44.66872 9.88217,7.226 11.46599,9.9241 8.67745,14.7829 -1.27496,2.2215 -1.32998,2.8062 -0.26404,2.8062 0.74058,0 1.60552,-0.675 1.92211,-1.5 0.31658,-0.825 1.31287,-1.5 2.21397,-1.5 1.03864,0 1.42964,0.544 1.06814,1.486 -0.59102,1.5402 3.21302,8.3971 4.69988,8.4717 0.46399,0.023 1.07765,-0.8526 1.36369,-1.9465 0.96663,-3.6964 2.39365,-0.8673 1.74485,3.4592 -0.67972,4.5328 0.88991,7.1779 2.06409,3.4784 0.90473,-2.8506 6.38498,-8.9488 8.04194,-8.9488 1.9625,0 10.88528,11.4077 14.84966,18.9852 6.16243,11.7788 8.09215,19.8902 8.09215,34.0148 0,10.2221 -0.41527,13.8212 -2.27878,19.75 -1.25333,3.9875 -2.68131,7.25 -3.17328,7.25 -0.49197,0 -2.29802,-1.181 -4.01345,-2.6244 -1.71543,-1.4435 -3.26211,-2.456 -3.43707,-2.25 -6.61077,7.7812 -9.05237,13.2164 -6.34742,14.1299 0.6875,0.2321 -0.2061,1.1779 -1.98577,2.1016 C 807.353,1147.8682 800,1157.1724 800,1159.3451 c 0,1.3653 4.76661,-0.1727 9.19039,-2.9653 4.58414,-2.8938 10.21775,-4.1465 11.23631,-2.4984 1.19438,1.9325 -3.76846,5.6922 -11.32574,8.58 l -7.32915,2.8006 0.61076,4.119 c 1.06258,7.1662 6.60399,51.0633 6.61085,52.369 0.01,1.9044 -2.8068,1.4908 -4.67044,-0.6858 -1.60112,-1.8699 -1.7357,-1.7668 -3.9608,3.0359 -4.25576,9.1856 -4.87734,12.4647 -2.92699,15.4413 0.94854,1.4477 1.57616,2.7568 1.39471,2.9091 -0.18144,0.1524 -8.95876,3.241 -19.50514,6.8636 -55.82163,19.1743 -103.62614,29.8362 -158.10433,35.2621 -18.73386,1.8659 -90.61937,2.6848 -122.72043,1.398 z m 89.46307,-9.3771 c 0.50246,-1.3215 1.33105,-2.6608 1.84131,-2.9762 0.51027,-0.3154 11.22552,-1.492 23.81169,-2.6148 36.69068,-3.2732 53.63671,-5.8095 70.54702,-10.5587 6.12008,-1.7188 9.94474,-2.2573 13.02922,-1.8345 5.46517,0.7491 13.47532,-2.0763 10.55769,-3.724 -2.53404,-1.4311 -2.22088,-4.7552 0.5,-5.3075 1.2375,-0.2512 5.93802,-0.7183 10.4456,-1.0379 4.50758,-0.3197 18.68258,-2.3411 31.5,-4.492 12.81742,-2.1509 26.95449,-4.4351 31.4157,-5.0759 8.09062,-1.1622 8.11453,-1.1744 9.37537,-4.8204 2.12318,-6.1395 2.46871,-32.1595 0.57306,-43.1552 -2.30047,-13.3438 -3.51607,-17 -5.65216,-17 -0.97672,0 -7.15848,2.7344 -13.73725,6.0765 -8.23121,4.1815 -12.85156,5.9747 -14.81585,5.75 -2.52678,-0.289 -1.21857,-1.4004 11.39553,-9.6808 7.8375,-5.1449 14.25,-9.47 14.25,-9.6114 0,-0.1413 -1.0125,-0.107 -2.25,0.076 -1.2375,0.1832 -7.2,1.0522 -13.25,1.9311 -6.05,0.8788 -29,5.1375 -51,9.4638 -22,4.3263 -42.8125,8.178 -46.25,8.5594 -3.4375,0.3815 -6.25,1.0854 -6.25,1.5644 0,0.4789 -1.575,0.8708 -3.5,0.8708 -2.32562,0 -3.5,0.4676 -3.5,1.3935 0,2.2828 -24.62489,2.7803 -120.23645,2.4289 -83.11356,-0.3054 -87.70718,-0.4149 -87.18105,-2.0773 0.87347,-2.76 -2.3431,-3.2982 -5.54833,-0.9285 -2.65549,1.9633 -2.79243,1.975 -2.32794,0.1988 0.62963,-2.4077 -0.44254,-2.5693 -26.37062,-3.9744 -39.40416,-2.1353 -73.8279,-5.7397 -105.83561,-11.0817 -25.64652,-4.2804 -42.98496,-8.3814 -74.75,-17.6803 -1.51761,-0.4442 -1.75,0.2229 -1.75,5.0236 0,3.0447 -1.15674,11.3097 -2.57054,18.3666 -2.77435,13.8481 -2.66152,18.6012 0.56554,23.8227 1.93832,3.1363 9.63156,8.2149 10.74996,7.0965 0.92243,-0.9225 -2.19989,-6.898 -5.66857,-10.8486 -1.68688,-1.9213 -3.71818,-4.7482 -4.51399,-6.2822 -1.30181,-2.5092 -1.26486,-3.0204 0.36846,-5.0968 0.99847,-1.2694 2.84263,-4.9073 4.09813,-8.0844 2.75963,-6.9832 6.24138,-11.91 9.0457,-12.8001 3.26143,-1.0351 3.37281,0.069 0.55135,5.4647 -3.42025,6.5411 -3.31938,7.7174 0.87396,10.1915 2.52085,1.4873 3.5,2.7667 3.5,4.5733 0,1.8837 -0.39662,2.356 -1.5929,1.8969 -3.70269,-1.4208 -6.22897,-1.6999 -6.81432,-0.7528 -0.98492,1.5936 0.1737,1.9425 18.56064,5.5884 36.03601,7.1454 77.75769,11.9509 156.84658,18.0654 45.93897,3.5517 77.20493,6.3692 77.85218,7.0156 2.7413,2.7378 -49.21858,2.532 -80.85218,-0.3201 -12.925,-1.1654 -30.06802,-2.4269 -38.09561,-2.8034 -14.55768,-0.6828 -14.59714,-0.6787 -15.18393,1.5652 -0.77373,2.9587 -3.08276,2.1232 -3.72046,-1.3463 l -0.5,-2.7203 -15,-0.4834 c -8.25,-0.2659 -22.2,-0.879 -31,-1.3624 -15.16316,-0.833 -16.5979,-1.0952 -27.4316,-5.0124 -12.90119,-4.6648 -19.83811,-5.2185 -19.24775,-1.5362 0.84164,5.2497 1.47506,7.5647 2.19082,8.0071 1.84863,1.1425 24.68865,5.5392 38.48853,7.409 21.18018,2.8698 32.6148,3.7607 78,6.0768 41.60802,2.1233 64.75097,3.9735 82.34568,6.5831 12.80446,1.8992 28.46215,5.1891 25.33858,5.324 -4.86643,0.2102 -8.03707,3.4162 -4.43426,4.4838 3.35643,0.9945 21.40731,2.637 22.37921,2.0363 0.59536,-0.3679 0.36992,-1.5356 -0.57487,-2.9775 -1.75787,-2.6829 -2.04531,-5.4426 -0.56688,-5.4426 0.5431,0 2.18537,1.9125 3.64949,4.25 1.46411,2.3375 3.15726,4.5806 3.76254,4.9847 2.11459,1.4117 9.47322,0.7488 14.20537,-1.2796 6.1444,-2.6338 8.79964,-2.2814 9.2045,1.2217 0.17015,1.4723 0.89143,3.1599 1.60284,3.7503 2.80984,2.332 15.74048,2.3712 32.0878,0.097 9.42386,-1.3108 18.05504,-1.9902 21,-1.6529 2.75,0.3149 9.05,-0.088 14,-0.8957 4.95,-0.8075 14.30795,-1.4699 20.79545,-1.472 11.24603,0 11.91191,-0.1202 14.29546,-2.5038 1.375,-1.375 2.68903,-2.5 2.92007,-2.5 0.23103,0 1.73235,1.2828 3.33626,2.8507 2.82577,2.7622 3.11365,2.8242 9.28447,1.9971 3.50256,-0.4695 14.91829,-2.726 25.36829,-5.0144 15.80178,-3.4605 21.10409,-4.1992 31.5,-4.3882 l 12.5,-0.2273 1.84205,-3.1089 c 1.01313,-1.71 2.13813,-3.0765 2.5,-3.0368 1.45913,0.1601 6.33215,7.0315 5.8597,8.2626 -0.32544,0.8481 -5.54935,2.1166 -14.58583,3.5417 -17.5439,2.7667 -23.26734,4.4452 -27.38001,8.0295 -3.05663,2.664 -4.17778,2.9143 -20.23591,4.5176 -9.35,0.9335 -30.5,3.4771 -47,5.6523 -63.50357,8.372 -90.2482,10.872 -117.5,10.9834 -17.63076,0.072 -18.19837,0.6026 -3.78498,3.5373 6.15201,1.2526 16.39464,1.8603 39.78498,2.3603 17.325,0.3704 33.64864,0.7566 36.27475,0.8583 4.20457,0.1627 4.88385,-0.1021 5.68832,-2.2181 z M 741,1236.559 c 0,-0.7925 0.55796,-1.7858 1.23992,-2.2073 0.83939,-0.5187 0.4356,-0.9678 -1.25,-1.3902 -1.97666,-0.4954 -0.11937,-1.4015 9.01008,-4.3956 13.95065,-4.5753 21.83479,-5.5594 25.46799,-3.1788 3.21574,2.107 3.23796,3.6129 0.0533,3.6129 -1.36329,0 -8.79787,2.025 -16.52129,4.5 -15.04063,4.8198 -18,5.3228 -18,3.059 z m -267.5,37.0722 c 0,-0.4778 -1.575,-1.3778 -3.5,-2 -2.43045,-0.7855 -3.59765,-1.8188 -3.81955,-3.3812 -0.23609,-1.6623 -0.98635,-2.25 -2.87245,-2.25 -2.13983,0 -2.35427,0.2393 -1.32534,1.4791 0.91671,1.1046 0.95675,2.2559 0.15816,4.5468 l -1.0694,3.0677 6.21429,-0.2968 c 3.41786,-0.1632 6.21429,-0.6877 6.21429,-1.1656 z m -39,-7.6941 c -4.4,-0.4265 -9.575,-1.2719 -11.5,-1.8787 -12.39422,-3.9067 -51.03269,-7.2712 -61,-5.3116 l -4.5,0.8846 6.5,1.1556 c 19.36444,3.4427 47.64957,5.9258 67.5,5.9257 l 11,-10e-5 z m -87.71962,-9.4219 2.1789,-4.4849 -2.92998,-1.5151 c -3.48762,-1.8036 -7.98433,-1.9484 -11.45089,-0.369 -2.93306,1.3364 -2.47676,2.8538 0.85816,2.8538 1.2752,0 2.90223,0.7033 3.61562,1.5629 1.1266,1.3575 0.97841,1.4961 -1.12756,1.0546 -1.33355,-0.2796 -4.67463,-0.8023 -7.42463,-1.1616 -7.18476,-0.9387 -8.56308,-1.8905 -7.85622,-5.4248 0.47648,-2.3824 0.0509,-3.3899 -2.27894,-5.3952 -1.57566,-1.3562 -2.58327,-2.7481 -2.23914,-3.0932 0.34414,-0.3451 10.46914,0.7351 22.5,2.4003 58.88278,8.1504 82.04077,10.126 123.3743,10.5251 18.975,0.1832 32.7,0.1395 30.5,-0.097 -2.2,-0.2367 -14.125,-1.7435 -26.5,-3.3486 -36.60688,-4.7479 -42.55092,-5.2126 -63,-4.9261 -15.46793,0.2168 -20.74064,-0.061 -25.5,-1.3417 -11.2626,-3.0314 -31.30319,-5.4324 -60.5,-7.2482 -49.08566,-3.0528 -71.84416,-8.9344 -87.33597,-22.5708 L 227,1209.83 v 3.43 c 0,2.2457 0.73936,4.0878 2.14123,5.335 1.17768,1.0478 2.93787,3.6647 3.91154,5.8154 1.6599,3.6664 2.41512,4.1529 12.10877,7.7998 16.05181,6.039 41.12094,14.544 54.33846,18.4349 11.21369,3.301 40.08543,10.117 43.55073,10.2813 0.88477,0.042 2.48648,-1.8524 3.72965,-4.4112 z M 481.80929,1242.25 c -0.27043,-1.4028 -1.47542,-1.7786 -6.07333,-1.8942 -3.9445,-0.099 -5.73596,0.2391 -5.73596,1.0833 0,2.1157 1.17171,2.5609 6.73999,2.5609 4.61105,0 5.35701,-0.2575 5.0693,-1.75 z M 220.80142,1198.5 c -0.001,-12.3993 -1.26735,-12.9969 -2.63362,-1.2432 -0.99225,8.5361 -0.99443,11.604 -0.0106,14.9881 l 1.23697,4.2551 0.70404,-5.5 c 0.38723,-3.025 0.70369,-8.65 0.70326,-12.5 z m 38.61455,13.1851 c 1.79228,-1.3105 1.80646,-1.5295 0.24354,-3.7608 -0.91273,-1.3031 -1.65951,-3.3391 -1.65951,-4.5244 0,-2.249 -2.24158,-4.825 -3.28803,-3.7785 -0.33221,0.3322 -2.9026,0.053 -5.71197,-0.6214 -2.80937,-0.674 -5.3812,-0.9521 -5.71517,-0.6182 -0.33397,0.334 0.63022,3.6811 2.14265,7.4381 l 2.74987,6.8308 4.66779,0.213 c 2.72917,0.1245 5.45815,-0.365 6.57083,-1.1786 z m 299.18881,-28.685 c 21.90777,-1.6987 48.8189,-5.1613 50.39522,-6.4842 5.01134,-4.2058 13.94804,-5.9507 43.69909,-8.5323 13.0905,-1.1359 26.50091,-2.4935 29.80091,-3.0169 3.3,-0.5234 6.3375,-0.955 6.75,-0.9591 0.4125,0 0.75,-0.6219 0.75,-1.3727 0,-0.7509 0.89674,-2.5052 1.99276,-3.8986 1.95474,-2.485 5.894,-3.8083 15.66501,-5.2622 2.28677,-0.3403 4.98677,-1.229 6,-1.975 1.78533,-1.3144 1.78556,-1.3782 0.008,-2.0671 -1.009,-0.391 -4.2913,-0.1215 -7.29401,0.5988 -4.78515,1.148 -5.65371,1.1155 -7.03212,-0.2629 -1.4302,-1.4302 -1.365,-1.6838 0.7198,-2.7995 1.26085,-0.6748 5.09007,-1.4515 8.50938,-1.726 l 6.21691,-0.499 0.6084,-3.8047 c 0.38331,-2.3971 1.2554,-3.9979 2.35729,-4.3269 0.96189,-0.2873 12.3239,-3.0221 25.2489,-6.0773 26.55403,-6.2768 45.97548,-11.9136 57,-16.5436 4.125,-1.7323 8.2875,-3.3915 9.25,-3.6869 0.9625,-0.2955 1.7466,-1.2723 1.74245,-2.1706 -0.0255,-5.5073 -2.69667,-16.0531 -6.62793,-26.1667 l -4.53121,-11.6571 -5.16666,0.4717 c -2.84166,0.2594 -5.66143,0.8636 -6.26616,1.3427 -1.59438,1.2631 -20.43724,-11.4798 -29.52568,-19.9674 -9.38756,-8.7669 -14.47123,-15.3122 -20.13934,-25.9296 -3.45041,-6.4633 -5.38115,-8.8889 -8.82601,-11.0881 -12.89857,-8.2345 -21.51853,-25.70985 -23.5073,-47.65667 l -0.67317,-7.42869 2.74645,-1.0442 c 3.30015,-1.25472 3.28274,-1.43721 -1.77364,-18.59595 -1.95894,-6.64764 -4.07676,-15.84835 -4.70627,-20.44603 -1.045,-7.63224 -0.96017,-10.23039 0.59071,-18.09253 0.46238,-2.34404 -0.10351,-2.97564 -5.2842,-5.89775 -3.19112,-1.79991 -9.06454,-5.6843 -13.05204,-8.63197 l -7.25,-5.35941 v 3.5071 c 0,1.9289 1.29867,7.54548 2.88594,12.48129 2.58942,8.05212 2.69539,8.87221 1.03138,7.98166 -4.55779,-2.43926 -8.83003,-13.33109 -10.97993,-27.99278 -1.05748,-7.21164 -1.26203,-7.62178 -4.73793,-9.5 -1.998,-1.07963 -6.44477,-5.32401 -9.88171,-9.43195 -5.87657,-7.02388 -13.63518,-13.04692 -15.02114,-11.66097 -0.34182,0.34182 -0.0984,1.76957 0.54095,3.17278 3.00459,6.59435 -0.38949,7.42666 -4.92275,1.20717 -4.79927,-6.58444 -6.68063,-10.80248 -11.99297,-26.88844 -5.83351,-17.66404 -8.19941,-22.51357 -22.79151,-46.71717 -12.541,-20.80147 -16.30434,-29.6191 -19.67575,-46.1009 -5.70249,-27.87778 -6.71935,-55.65073 -3.95839,-108.11345 1.80848,-34.36415 2.99001,-47.21679 5.55284,-60.40344 1.07177,-5.51463 3.31232,-19.80814 4.97899,-31.76337 5.15406,-36.97059 9.76963,-50.49659 20.8319,-61.04821 6.61297,-6.3077 8.66055,-7.21416 7.11533,-3.14992 -1.57011,4.12969 -1.2671,4.01772 4.80761,-1.77657 5.04267,-4.80989 9.71463,-7.7133 10.66827,-6.62984 0.16523,0.18772 0.61164,1.35381 0.99203,2.59131 0.51311,1.66928 0.28782,2.25 -0.87289,2.25 -2.83565,0 -9.27038,6.90075 -12.93168,13.86822 -3.78771,7.20803 -9.97439,24.84771 -11.09405,31.63178 -0.62662,3.79669 -0.43843,3.61879 3.70236,-3.5 2.39939,-4.125 7.76361,-12.9 11.9205,-19.5 10.04467,-15.94822 13.15296,-21.57493 16.78657,-30.38754 1.67532,-4.06314 3.04603,-7.55064 3.04603,-7.75 0,-0.78705 -7.9746,-0.25344 -17,1.13754 -5.225,0.80527 -10.625,1.46219 -12,1.45983 l -2.5,-0.004 2.41885,-1.85943 c 2.37745,-1.8276 2.02104,-1.85718 -20.81856,-1.72777 l -23.23741,0.13167 0.54356,2.75 c 0.61316,3.10212 -0.14179,3.42449 -2.96531,1.26622 -4.08819,-3.12496 -8.78014,-3.61748 -19.34502,-2.03066 C 533.46628,451.68293 532,451.58253 532,448.38337 c 0,-2.2581 -0.3083,-2.51895 -2.25,-1.90375 -6.18403,1.95931 -27.37636,1.7162 -48.29766,-0.55407 -11.76454,-1.27663 -21.65154,-2.05968 -21.9711,-1.74012 -0.92349,0.92348 7.57468,19.41342 13.70308,29.81457 7.09033,12.03375 15.03224,22.85033 15.57717,21.21553 0.23024,-0.69071 -1.87191,-6.10196 -4.67144,-12.025 C 480.81927,476.27045 479,471.0951 479,468.71068 c 0,-6.89807 3.20371,-3.52864 7.5015,7.88953 3.02423,8.03464 6.32615,13.62434 7.58758,12.84474 0.50504,-0.31214 0.6281,-1.72361 0.27346,-3.13661 -0.48534,-1.93377 -0.30088,-2.45445 0.74591,-2.10552 1.98562,0.66187 4.5111,8.0902 6.97936,20.52872 2.64068,13.30742 5.15719,20.21277 8.51082,23.35375 l 2.57818,2.41471 -0.66034,-4 C 510.2763,512.93022 508.04826,504.37889 501.98003,486.06054 495.11825,465.34668 492.5128,455 494.15854,455 c 1.82863,0 6.93107,9.69064 9.44777,17.94336 2.87246,9.4193 6.06787,16.37604 7.20044,15.67608 0.40153,-0.24816 0.56239,1.30697 0.35746,3.45584 -0.54942,5.76125 1.3636,15.23965 6.29945,31.2118 8.94407,28.94254 9.22773,31.34535 7.10818,60.21292 -3.15023,42.90525 -7.61768,83.10476 -13.61764,122.53579 -5.2018,34.1856 -5.10745,33.83574 -10.42991,38.67503 -4.08597,3.71506 -4.98099,5.32976 -7.60199,13.71473 -11.88381,38.01818 -32.03643,69.30933 -68.78465,106.80251 -9.98017,10.18248 -14.92583,15.90074 -14.02661,16.21781 6.69602,2.361 17.40673,4.55413 22.24131,4.55413 5.16595,0 5.73656,-0.18794 4.62759,-1.52417 -1.53397,-1.84833 -0.4315,-3.32739 1.23673,-1.65916 1.59694,1.59694 9.94911,1.43425 17.28333,-0.33667 7.12746,-1.72099 12.36088,-1.86359 16.10809,-0.4389 2.55115,0.96994 2.62486,1.15452 1.07858,2.7008 -1.72117,1.72117 -3.72714,1.86455 -16.28915,1.16428 -5.11401,-0.28508 -7.57699,-0.002 -8.79733,1.01067 -1.3469,1.11782 -1.42851,1.58988 -0.39752,2.29929 0.74509,0.5127 23.00649,0.65943 52.29733,0.34471 28.05,-0.30138 53.925,-0.18606 57.5,0.25629 l 6.5,0.80426 -6,0.68556 c -3.3,0.37706 -10.98876,1.58874 -17.08613,2.69263 -6.92918,1.25449 -12.78851,1.77373 -15.62622,1.38478 -2.81626,-0.38601 -5.25156,-0.17478 -6.41387,0.55632 -1.45853,0.91741 2.22608,1.04185 16.62622,0.56151 16.71718,-0.55762 40.53081,-2.63706 41.40585,-3.61561 0.19013,-0.21262 0.63246,-1.32201 0.98295,-2.46531 0.5605,-1.82837 0.28865,-2.02755 -2.25735,-1.65388 -4.11411,0.60382 -4.99408,-1.57072 -1.17446,-2.90225 2.32748,-0.81137 2.84582,-1.39782 2.06599,-2.33746 -0.82828,-0.99801 -0.1401,-1.0482 3.36741,-0.24556 3.35079,0.76676 6.5662,0.61402 13.40235,-0.63667 4.94666,-0.905 10.93835,-1.64546 13.31488,-1.64546 3.71675,0 4.1162,0.19327 2.85667,1.38218 -1.90021,1.79365 -10.05884,4.30432 -16.71429,5.14352 -5.60047,0.70617 -6.12293,1.46431 -4.08756,5.93147 0.63934,1.40321 0.91429,2.79943 0.611,3.10272 -0.71112,0.71112 -54.73588,7.95942 -69.77344,9.36123 -14.66579,1.36716 -24.76469,1.36081 -36.30842,-0.0228 -10.33983,-1.23934 -14.14207,-0.42882 -15.65504,3.33718 -0.50037,1.24549 -0.9526,1.81454 -1.00496,1.26454 -0.0524,-0.55 -0.68192,-1.77237 -1.39904,-2.71637 -1.22747,-1.61583 -1.60702,-1.60118 -6.47892,0.25 -5.90341,2.24312 -9.40778,2.43477 -15.67303,0.85717 -3.7175,-0.93608 -4.65621,-0.85804 -6.01424,0.5 -1.58271,1.5827 -5.04765,2.14991 -10.96635,1.79517 -8.80064,-0.52747 -10.38759,-3.12075 -1.75,-2.85973 3.1625,0.0956 5.89745,-0.27624 6.07766,-0.82624 0.97995,-2.99077 -32.82637,-8.42695 -42.32766,-6.80644 -6.31314,1.07675 -6.89739,3.56869 -1.00968,4.30644 2.50935,0.31443 4.0985,1.06951 4.28182,2.03449 0.2453,1.29127 -0.86267,1.47769 -6.99032,1.17614 -8.67626,-0.42697 -12.28182,-2.4194 -12.28182,-6.78692 0,-2.56673 0.4364,-2.94676 4.25,-3.70093 3.35071,-0.66264 4.25,-1.27587 4.25,-2.89813 0,-1.94439 -0.37154,-2.01821 -6.75,-1.3413 -3.7125,0.39398 -7.97466,1.43584 -9.47146,2.31524 -2.33684,1.37294 -4.77854,5.62229 -4.77854,8.31623 0,1.05972 19.00189,6.97585 38.29191,11.92197 32.21879,8.26115 83.58311,17.33277 97.70809,17.25653 12.18931,-0.0658 74.53627,-4.94852 94,-7.36165 9.075,-1.12513 22.30661,-3.20123 29.40357,-4.61357 12.0987,-2.40771 13.0747,-2.4668 15.6471,-0.94724 1.50894,0.89135 6.21797,2.10389 10.4645,2.69453 6.85994,0.95413 12.48643,2.37827 12.48397,3.15986 -4.8e-4,0.15111 -5.94921,0.36883 -13.21941,0.48381 -15.02874,0.23768 -24.33811,1.20776 -51.27973,5.34355 -27.83214,4.2725 -44.21115,5.8981 -62.3559,6.18877 -10.20075,0.16341 -16.02346,0.62675 -15.81687,1.25862 0.60043,1.83645 6.93622,5.5 9.51178,5.5 2.36962,0 2.41825,-0.0914 0.71234,-1.3388 -1.57184,-1.14935 0.27602,-1.43156 13.05887,-1.99439 8.18938,-0.36058 20.73978,-1.32863 27.88978,-2.15122 7.15,-0.82258 17.5,-1.45035 23,-1.39502 l 10,0.10059 -5.5,1.38224 c -17.6089,4.42542 -49.38536,8.65046 -79,10.50396 -33.7123,2.10996 -116.8302,-0.54555 -127,-4.05749 -1.46086,-0.50448 16.20444,-0.79818 42.5,-0.7066 34.09053,0.11873 46.77347,-0.17089 52.3153,-1.19464 4.02342,-0.74325 7.17342,-1.48747 7,-1.65383 -0.17341,-0.16635 -9.3153,-0.80315 -20.3153,-1.41509 -39.37798,-2.19066 -64.57521,-5.68044 -83.15723,-11.51718 -4.31352,-1.35491 -11.55254,-2.92279 -16.0867,-3.48418 -11.45181,-1.41789 -16.25952,-4.20964 -17.78657,-10.32835 -0.81596,-3.26946 -0.19964,-3.40609 3.49552,-0.77491 1.52557,1.08631 4.07004,2.47216 5.65437,3.07968 3.27458,1.25565 25.69983,5.87552 26.22362,5.40238 0.79721,-0.72011 -8.49604,-6.5667 -13.69819,-8.61783 -4.58661,-1.80843 -7.72021,-2.23632 -16.7156,-2.2825 -10.5122,-0.0539 -11.28561,0.0853 -15.32872,2.75946 -2.47461,1.63676 -4.85933,4.2556 -5.69383,6.25284 l -1.43588,3.43654 4.51461,4.32576 c 4.8367,4.63437 5.68061,7.7774 3.0146,11.22745 -1.48484,1.92151 -1.51516,1.92151 -3,0 -0.825,-1.06762 -1.5,-3.63929 -1.5,-5.71482 0,-2.70747 -0.5465,-4.06616 -1.93426,-4.80887 -3.76427,-2.01457 -4.54272,-1.18483 -6.76874,7.21482 -1.2025,4.5375 -3.0795,11.2875 -4.1711,15 l -1.98473,6.75 h 2.31761 c 1.40391,0 4.11719,-1.77411 6.88219,-4.5 2.51052,-2.475 4.92333,-4.49311 5.3618,-4.48469 1.24699,0.024 3.92726,1.95219 2.73746,1.96938 -0.58287,0.008 -3.50787,2.08116 -6.5,4.6061 -2.99213,2.52493 -6.45273,5.44695 -7.69023,6.49338 -2.33995,1.97866 -3.08715,5.91583 -1.12271,5.91583 3.19348,0 14.75314,-7.18003 25.87271,-16.07026 12.25072,-9.7946 21.68317,-15.53535 24.16588,-14.70778 2.03389,0.67796 -6.95844,8.85551 -15.15225,13.77933 -9.92781,5.96581 -15.29838,11.32322 -17.54171,17.49871 -2.43615,6.7063 -2.53022,6.80294 -11.30903,11.61675 -9.94248,5.45191 -13.04555,7.78201 -14.76036,11.08359 -1.55801,2.99969 -1.88469,7.79962 -0.53084,7.79962 1.94709,0 16.38696,-10.33123 28.30899,-20.25414 6.97437,-5.80489 14.71914,-11.95685 17.21058,-13.67101 2.75455,-1.89518 4.32502,-3.65059 4.00713,-4.479 -0.28753,-0.74929 0.15533,-2.98529 0.98413,-4.96889 1.79291,-4.29104 7.01865,-7.24502 11.03399,-6.23723 2.35888,0.59204 2.50665,0.88702 1.44513,2.88489 -2.18002,4.103 -14.24704,15.86876 -27.51131,26.82448 -12.94843,10.69484 -24.1683,22.0954 -22.3598,22.72 2.59441,0.8959 19.89667,-11.03797 43.00947,-29.66506 12.23413,-9.85974 24.579,-17.81397 29.18815,-18.80695 3.58612,-0.77257 -5.86488,7.77792 -21.92053,19.83194 -13.69622,10.28264 -28.47312,23.46795 -30.45873,27.17807 -0.95667,1.7875 -0.7193,1.7557 2.82331,-0.3789 C 354.51261,998.64015 367.4129,989.05617 387,973.95962 396.04502,966.98826 412.93647,956 414.608,956 c 0.30066,0 -1.62565,2.55293 -4.28068,5.67317 -6.6235,7.78408 -27.59341,26.75097 -40.51398,36.64415 C 358.69807,1006.8282 356.54772,1010 361.89301,1010 c 1.62103,0 3.14069,0.6454 3.45633,1.468 0.84734,2.2081 -0.89481,2.7522 -5.0859,1.5883 -5.26817,-1.463 -8.26344,-1.3236 -8.26344,0.3847 0,2.0261 1.33519,2.6413 7.56821,3.4871 l 5.45526,0.7403 5.20695,-5.5842 c 7.72141,-8.2808 24.20036,-23.47233 33.03139,-30.45072 5.08857,-4.02105 9.17267,-8.30939 11.85824,-12.45127 2.56355,-3.9537 5.3316,-6.90681 7.39729,-7.89187 3.24342,-1.54668 6.48266,-1.25676 6.48266,0.58021 0,0.51332 -7.48165,7.59024 -16.6259,15.72647 -15.34797,13.6561 -24.67042,23.35108 -27.45266,28.54978 -2.44255,4.5639 7.11536,-2.5595 23.03567,-17.16832 15.25162,-13.99522 23.41321,-19.7528 30.29289,-21.3701 1.5125,-0.35557 2.75,-0.46838 2.75,-0.25071 0,0.21768 -6.4125,5.5883 -14.25,11.93471 -14.64311,11.85724 -27.60165,24.18932 -26.53694,25.25402 1.51683,1.5168 14.90062,-7.33095 28.54663,-18.87167 5.35717,-4.53067 11.59419,-9.67732 13.86005,-11.43701 4.63295,-3.59801 16.47353,-9.48475 17.32487,-8.61336 0.85263,0.8727 -8.79454,9.39431 -22.21158,19.62009 -6.66482,5.07959 -14.28028,11.39804 -16.92325,14.04101 -4.45182,4.45184 -8.45561,10.40204 -7.58509,11.27254 0.20469,0.2047 7.32537,-4.8371 15.82374,-11.20398 8.49836,-6.36689 19.50157,-14.23549 24.45157,-17.48577 5.29663,-3.4779 10.26585,-7.64992 12.07628,-10.13893 4.05903,-5.58042 9.05475,-8.90444 12.8145,-8.52643 1.62536,0.16341 3.11507,0.78525 3.31046,1.38188 0.1954,0.59662 -5.39494,5.61816 -12.42298,11.15899 -15.09004,11.89681 -25.4332,20.90938 -28.5383,24.86704 l -2.23996,2.8549 6,-3.3665 c 3.3,-1.85161 7.6875,-4.69421 9.75,-6.31691 2.72328,-2.14257 3.75,-2.53484 3.75,-1.43274 0,0.91081 1.09614,1.64412 2.74145,1.83403 4.66591,0.53854 3.74502,3.11731 -2.80867,7.86512 -3.37553,2.4454 -6.76781,5.6654 -7.53841,7.1556 l -1.40108,2.7093 4.22059,-1.4891 c 8.88921,-3.1363 17.55438,-9.0909 36.28612,-24.9355 6.6,-5.58273 14.925,-12.31143 18.5,-14.95266 C 515.52413,964.97747 529.31084,958 532.77043,958 c 3.58361,0 2.4364,3.10892 -2.02953,5.5 -4.25992,2.28078 -4.95959,4.02269 -1.2409,3.08936 1.375,-0.34511 2.5,-0.23739 2.5,0.23937 0,1.12678 -8.14822,8.74295 -25.50745,23.8419 C 490.5778,1004.5132 477.93711,1017 479.83874,1017 c 4.7883,0 19.20021,-9.4184 37.66126,-24.61209 13.43483,-11.05707 18.61822,-14.6124 27.06977,-18.56735 11.97711,-5.60477 10.16741,-3.91192 -18.70053,17.49314 -6.39692,4.7432 -14.94692,11.9795 -19,16.0807 -7.71775,7.8094 -15.88154,19.6056 -13.56842,19.6056 2.19479,0 10.76715,-5.9004 17.6637,-12.1581 3.59452,-3.2615 8.69285,-6.9226 11.32963,-8.1359 3.45385,-1.5893 5.50078,-3.4083 7.32167,-6.5064 2.72251,-4.63209 8.04392,-7.92788 10.98083,-6.80088 1.47945,0.56771 0.44203,2.06266 -6.17048,8.89188 -4.37191,4.5152 -9.95,10.3469 -12.39576,12.9594 l -4.44683,4.75 h 4.23049 c 3.8155,0 4.75306,-0.5395 9.55755,-5.5 2.92987,-3.025 5.80804,-5.5 6.39593,-5.5 0.58788,0 1.89318,-0.3079 2.90066,-0.6842 1.14534,-0.4278 0.42651,0.8849 -1.91821,3.5029 -3.64729,4.0724 -5.02268,8.4358 -2.5,7.9313 0.76155,-0.1523 1.15383,0.6466 1.00389,2.0446 -0.22801,2.1258 0.0295,2.2471 3.5,1.6494 5.88595,-1.0136 11.25701,-3.9446 18.26677,-9.9681 7.71183,-6.6268 12.80505,-9.4759 16.9395,-9.4759 4.28727,0 3.79169,1.309 -1.87129,4.943 -4.54837,2.9187 -6.81793,5.6613 -5.65071,6.8285 0.92253,0.9225 10.07823,-1.9128 14.56184,-4.5096 2.475,-1.4334 6.76039,-4.2675 9.52309,-6.298 10.13373,-7.44785 17.62984,-9.97009 22.83871,-7.68458 l 2.86179,1.25568 -4.74184,5.2741 c -4.53942,5.0489 -10.08432,8.9217 -11.1903,7.8157 -0.28748,-0.2875 -0.0441,-1.8957 0.54091,-3.5738 0.67487,-1.9359 0.70539,-3.051 0.0835,-3.051 -2.40371,0 -8.8142,3.4675 -17.39805,9.4107 -16.23768,11.2426 -21.83046,13.1915 -28.25325,9.8449 -3.64492,-1.8991 -3.93421,-1.9061 -9.10238,-0.2207 -6.04447,1.9712 -7.66707,3.207 -6.8854,5.244 0.38838,1.0121 3.17091,1.5836 9.80097,2.0132 7.49776,0.4857 9.64926,0.9905 11.31265,2.6539 l 2.05404,2.054 -17.47222,0.028 c -9.60972,0.015 -27.59722,0.6801 -39.97222,1.4776 -12.375,0.7975 -33.975,1.7902 -48,2.206 -14.025,0.4158 -24.15,0.8861 -22.5,1.0451 1.65,0.159 6.66268,1.1911 11.1393,2.2936 24.09189,5.9333 51.73049,7.3343 89.8607,4.5551 12.1,-0.882 28.975,-1.8952 37.5,-2.2518 10.44504,-0.4368 16.14329,-1.0893 17.47251,-2.0007 1.08487,-0.7439 3.19023,-1.3526 4.67857,-1.3526 1.48833,0 3.43708,-0.731 4.33054,-1.6245 1.4993,-1.4993 1.81303,-1.4473 4.07143,0.6743 1.71642,1.6125 2.45152,1.8736 2.46226,0.8745 0.008,-0.7834 0.44066,-2.0971 0.96052,-2.9194 0.81581,-1.2905 1.13281,-1.2386 2.31569,0.3791 1.61974,2.2151 5.59346,1.9249 12.92271,-0.9437 5.28078,-2.0669 6.55211,-1.6521 4.60506,1.5024 -1.98053,3.2088 -10.38834,6.7906 -18.81929,8.0171 -4.125,0.6001 -9.95898,1.7953 -12.9644,2.6559 -4.66024,1.3345 -5.19018,1.7183 -3.60101,2.6076 3.17849,1.7788 15.93546,0.131 33.2052,-4.289 9.03334,-2.312 16.64544,-3.9824 16.91577,-3.7121 1.03522,1.0353 -0.93486,3.9715 -3.25704,4.8544 -1.3358,0.5079 -4.22901,0.9234 -6.42936,0.9234 -2.20035,0 -4.93185,0.4984 -6.07,1.1075 -3.17881,1.7012 -0.40524,2.8591 6.89182,2.8772 6.50738,0.016 9.26695,1.4667 4.56775,2.4011 -12.48918,2.4834 -41.70384,6.0903 -66.25873,8.1805 -24.99505,2.1276 -88.95024,2.9791 -115.5,1.5378 -45.42024,-2.4657 -85.50684,-7.3118 -125.5,-15.1718 -15.16219,-2.9799 -45.77662,-10.1051 -49.25,-11.4624 -1.22012,-0.4768 -1.75,-0.2019 -1.75,0.9078 0,1.3499 -0.91938,1.4955 -6.05462,0.9588 -5.89619,-0.6163 -6.34758,-0.485 -17.25,5.017 -6.52543,3.2931 -12.7692,5.7534 -14.96832,5.8982 -4.96504,0.3268 -4.75023,3.1019 0.27711,3.58 4.51608,0.4295 6.16883,1.8788 5.79639,5.0827 -0.31506,2.7103 -1.96901,3.0285 -10.19135,1.9609 -1.639,-0.2128 -3.07316,0.1382 -3.31196,0.8106 -0.62426,1.7577 6.14559,3.3021 14.50241,3.3085 7.61251,0.01 12.45696,1.626 13.5752,4.5401 0.5338,1.391 -0.0918,1.535 -4.62882,1.065 -2.88532,-0.2989 -9.29604,-0.7928 -14.24604,-1.0975 -4.95,-0.3048 -11.0895,-0.803 -13.64334,-1.1072 l -4.64334,-0.5531 -1.64796,4.9615 c -1.89855,5.716 -3.9659,7.9269 -8.20508,8.7747 l -3.00848,0.6017 1.32731,8.6602 c 0.73002,4.7631 1.21336,10.1738 1.0741,12.0238 l -0.25321,3.3637 16.71514,5.8387 c 9.19333,3.2113 20.08686,6.5351 24.20785,7.3863 7.52335,1.554 22.67275,2.1186 23.90059,0.8908 0.36131,-0.3613 -5.97619,-3.2195 -14.08333,-6.3516 -17.01921,-6.575 -23.21023,-9.5561 -32.24025,-15.524 -5.7431,-3.7956 -12.23707,-9.4675 -10.83969,-9.4675 0.79655,0 17.66015,6.9806 36.85854,15.2574 21.99459,9.4823 34.62394,13.8897 49.09797,17.1341 11.33313,2.5403 35.50142,5.3236 36.60904,4.216 1.24944,-1.2495 -11.28202,-5.6918 -21.48488,-7.6162 -26.59118,-5.0156 -32.0923,-6.2904 -37.43811,-8.6753 -5.98641,-2.6707 -10.40775,-6.316 -7.66065,-6.316 0.7987,0 14.93095,2.7067 31.40498,6.0148 62.28656,12.5079 85.94474,16.2359 115.15347,18.1457 10.01036,0.6546 18.00358,1.509 17.76271,1.8988 -1.34633,2.1784 13.62668,4.8224 28.53662,5.0392 5.225,0.076 10.85,0.4642 12.5,0.8627 3.18908,0.7703 3.32362,0.6202 -2.5,2.7894 -1.6612,0.6188 -54.2392,2.1021 -54.93967,1.55 -0.24181,-0.1906 0.54569,-1.0368 1.75,-1.8803 2.90653,-2.0358 2.77079,-3.4203 -0.33533,-3.4203 -2.00133,0 -2.64851,0.6175 -3.12051,2.9776 -0.32754,1.6376 -1.1826,3.4648 -1.90015,4.0603 -0.94108,0.781 -10.86941,0.4766 -35.62948,-1.0924 -40.43959,-2.5627 -102.37745,-3.7929 -104.10267,-2.0677 -0.69875,0.6988 -0.73659,1.1222 -0.10028,1.1222 0.56206,0 7.51456,1.0935 15.45,2.43 17.47826,2.9436 36.93294,4.8805 75.92809,7.5591 38.82855,2.6672 68.91255,5.7153 75.2698,7.6263 1.60255,0.4817 1.55529,0.7109 -0.5,2.425 -2.23971,1.868 -2.24203,1.8935 -0.17479,1.9263 1.15226,0.018 2.9095,-0.8667 3.90499,-1.9667 3.0124,-3.3287 4.5,-2.5217 4.5,2.441 0,2.4425 -0.46066,4.7257 -1.02369,5.0736 -0.56303,0.348 -2.92553,-0.09 -5.25,-0.974 -3.37822,-1.2843 -7.43701,-1.5499 -20.22631,-1.3237 l -16,0.2831 7,1.6956 c 3.85,0.9326 13.75,2.4036 22,3.2689 8.25,0.8653 18.26917,2.272 22.26482,3.1259 7.33984,1.5686 8.79564,3.3188 2.92616,3.5178 -4.36265,0.1479 9.5484,2.652 20.80902,3.7457 12.78744,1.2421 52.86237,1.3281 68.10478,0.1462 z m -81.93811,-3.6668 C 476.3,1178.9667 476,1178.077 476,1177.3564 c 0,-0.9442 1.67642,-1.2867 6,-1.2259 6.1539,0.087 7.47673,1.0088 4.06574,2.8343 -2.15992,1.156 -8.36822,1.3994 -9.39907,0.3685 z M 521,1166.4752 c 0,-2.0624 4.09183,-3.4752 10.0651,-3.4752 5.29566,0 6.12086,-0.7783 2.9349,-2.7679 -2.28264,-1.4256 -2.69049,-4.2321 -0.61501,-4.2321 2.27775,0 4.96836,4.8693 3.60099,6.5169 -3.4806,4.1939 -15.98598,7.2904 -15.98598,3.9583 z m 204.35231,-37.2474 c 3.03197,-3.456 16.18494,-9.69 31.71893,-15.0335 15.10007,-5.1942 25.15626,-9.5196 30.57489,-13.1508 2.88712,-1.9348 3.27818,-1.9763 4.75,-0.5045 0.88213,0.8821 1.60387,1.9891 1.60387,2.46 0,1.2018 -10.29324,7.3187 -18.55743,11.0279 -8.98711,4.0337 -23.01676,8.8959 -37.44257,12.9764 -6.325,1.789 -12.175,3.4965 -13,3.7943 -1.11175,0.4014 -1.02056,-0.01 0.35231,-1.5698 z M 451,1129.5865 c 0,-0.3498 1.125,-1.0637 2.5,-1.5865 3.24502,-1.2338 3.16554,-2.5719 -0.25,-4.2089 -4.93542,-2.3655 -3.45491,-4.1139 3.50951,-4.1445 7.51026,-0.033 9.24686,1.1685 6.88914,4.7669 -0.90676,1.3839 -2.44443,2.942 -3.41706,3.4626 -2.32621,1.2449 -9.23159,2.5244 -9.23159,1.7104 z m 256,-14.6843 c 1.375,-1.1706 5.43289,-3.6054 9.01753,-5.4108 6.02865,-3.0362 12.43851,-5.2025 44.18155,-14.9318 6.4345,-1.9722 11.95852,-4.0056 12.2756,-4.5186 0.31708,-0.5131 -1.03578,-1.378 -3.00636,-1.9221 -5.9895,-1.6538 -19.33232,1.2432 -27.2549,5.9177 -4.05817,2.3944 -3.86777,2.3932 -4.48625,0.028 -1.39161,-5.3215 8.19625,-9.4586 25.71221,-11.0945 6.08334,-0.5682 14.61448,-1.4616 18.95808,-1.9855 10.37014,-1.2507 13.10254,-0.1272 13.10254,5.3874 v 3.8451 l -15.1712,5.2965 c -8.34417,2.9131 -21.63059,8.0392 -29.5254,11.3914 -7.8948,3.3522 -14.69609,6.0949 -15.11398,6.0949 -0.41788,0 -0.2575,-0.9385 0.35642,-2.0856 0.61391,-1.1472 0.95844,-2.2435 0.76561,-2.4363 -0.19282,-0.1928 -6.19178,1.3448 -13.33102,3.4169 -7.13924,2.072 -14.33043,4.0752 -15.98043,4.4515 l -3,0.684 2.5,-2.1283 z m -286,-5.8292 c 0,-0.5648 1.13916,-1.7733 2.53148,-2.6856 1.94922,-1.2772 3.27175,-1.4464 5.75,-0.7356 5.43463,1.5586 4.06429,3.8041 -2.53148,4.1481 -3.46161,0.1806 -5.75,-0.1088 -5.75,-0.7269 z m -152.8815,-4.684 c -8.85538,-1.8276 -13.77016,-6.3953 -6.8685,-6.3834 4.82659,0.01 10.21919,1.7504 12.20271,3.9421 2.8905,3.194 1.46785,3.8451 -5.33421,2.4413 z M 376,1104.8836 c -28.12905,-2.2451 -62.28715,-7.5161 -106.61901,-16.4524 -15.33198,-3.0906 -28.23673,-5.842 -28.67722,-6.1143 -0.44049,-0.2722 -0.24163,-1.1688 0.44191,-1.9924 1.44953,-1.7466 5.97414,-1.3733 12.85432,1.0606 4.85743,1.7183 39.84914,7.0209 109.5,16.5936 24.2,3.326 46.025,6.4382 48.5,6.9161 6.01643,1.1615 -21.41344,1.1531 -36,-0.011 z m 42.5,-13.8766 c -24.96118,-2.2014 -31.92833,-3.3444 -34.19348,-5.6096 -2.14121,-2.1412 -2.4083,-2.1698 -7.01623,-0.7519 -5.91252,1.8193 -13.5614,1.1644 -27.66168,-2.3684 -8.77146,-2.1976 -13.34442,-2.6374 -34.12861,-3.2818 -25.51906,-0.7911 -28.73275,-1.2252 -27.76392,-3.7499 0.52552,-1.3695 -0.49971,-1.4747 -8.4916,-0.8714 -9.62677,0.7267 -10.90046,0.2682 -9.70629,-3.4943 0.57518,-1.8123 1.19689,-2.0178 4.50419,-1.4889 2.1103,0.3374 4.09441,0.1969 4.40913,-0.3123 0.58771,-0.951 -6.26537,-3.771 -14.73019,-6.0614 -2.62827,-0.7112 -4.6094,-1.4624 -4.40251,-1.6692 0.20689,-0.2069 19.3955,2.773 42.64137,6.622 75.05716,12.4277 108.61568,16.7658 151.25166,19.5521 13.35849,0.873 26.76316,1.8747 29.78816,2.226 l 5.5,0.6386 -5.5,0.7078 c -7.02762,0.9044 -53.97614,0.8408 -64.5,-0.087 z m -185.86971,-7.257 c -0.33164,-1.2375 -0.60913,-3.4875 -0.61664,-5 -0.0119,-2.3919 0.37698,-2.75 2.98635,-2.75 3.44752,0 3.7493,1.2709 1.55103,6.5321 -1.67175,4.0011 -3.05937,4.4321 -3.92074,1.2179 z M 654,1043.1605 c 0,-1.8263 2.84116,-3.6127 8.31338,-5.2272 4.65844,-1.3744 2.91755,2.1814 -2.3256,4.75 -5.56512,2.7264 -5.98778,2.7601 -5.98778,0.4772 z m -82.77133,-5.5014 c -5.56552,-1.0887 -6.27592,-2.5544 -1.97491,-4.0747 3.15236,-1.1143 11.74624,1.811 11.74624,3.9983 0,1.5975 -1.91813,1.6125 -9.77133,0.076 z M 646,1034.5551 c 0,-0.3672 2.01318,-1.5581 4.47373,-2.6465 8.1267,-3.5948 23.83963,-3.7688 28.14124,-0.3115 1.72388,1.3855 1.41485,1.4663 -3.61497,0.9462 -5.04771,-0.5219 -16.99187,0.4265 -25.5207,2.0266 -1.91362,0.359 -3.4793,0.3523 -3.4793,-0.015 z M 564.68219,998.89268 C 563.08725,992.79362 570.92959,986 579.5651,986 c 4.41149,0 4.5416,2.16377 0.36473,6.06554 C 577.1958,994.61952 567.06572,1001 565.7449,1001 c -0.2814,0 -0.75962,-0.9483 -1.06271,-2.10732 z m 19.70069,0.35732 c -1.6779,-1.6684 -1.553,-1.77332 2.67858,-2.25 4.23028,-0.47654 4.42799,-0.64244 4.21379,-3.53571 -0.16826,-2.27279 0.20872,-3.05324 1.5,-3.10545 0.94861,-0.0384 2.4548,-0.38588 3.34709,-0.77229 1.20429,-0.52151 1.74608,-0.0552 2.10256,1.80961 0.55074,2.881 -2.89684,6.78591 -7.54,8.54022 -3.74475,1.41482 -4.24342,1.36052 -6.30202,-0.68638 z m -39.41984,-8.14044 c 2.73864,-4.99156 13.66377,-13.2262 21.78696,-16.42157 5.10875,-2.0096 5.39871,-0.89574 1,3.84152 -3.54681,3.81979 -24.25219,15.25066 -22.78696,12.58005 z M 460.5,989.21369 c 2.00621,-1.82993 17.09586,-13.85102 20.5,-16.33121 6.05001,-4.40794 12.45162,-7.80346 18.57991,-9.85512 l 5.92009,-1.98195 -5,4.6422 c -6.02597,5.59476 -18.32327,13.7301 -28.3487,18.75423 -8.24253,4.13065 -13.15331,6.14188 -11.6513,4.77185 z m -110.84075,-42.6593 c -0.40229,-1.04833 -1.53096,-1.28719 -4.10699,-0.86916 C 343.35188,946.0423 342,945.85779 342,945.20039 c 0,-0.58371 1.0125,-1.20509 2.25,-1.38084 1.61101,-0.2288 2.33986,-1.10054 2.56642,-3.06955 0.2403,-2.08837 0.85594,-2.75 2.55887,-2.75 1.23335,0 3.03997,0.58316 4.01472,1.29592 1.695,1.23941 1.69526,1.45742 0.006,5 -1.89514,3.97416 -2.85556,4.55464 -3.73668,2.25847 z M 662,924 c -0.825,-0.53316 -2.85,-0.99058 -4.5,-1.01649 -2.85491,-0.0448 -2.90612,-0.11812 -1.05887,-1.51531 1.96901,-1.48929 8.08908,-1.96944 10.97708,-0.86121 0.86999,0.33384 1.58179,1.45884 1.58179,2.5 0,1.40215 -0.71308,1.88904 -2.75,1.8777 -1.5125,-0.008 -3.425,-0.45153 -4.25,-0.98469 z m -3,-6.15622 c -2.475,-0.51539 -6.43778,-0.74352 -8.80617,-0.50694 -3.98813,0.39838 -4.15382,0.32344 -2.24344,-1.01464 2.94583,-2.06335 11.04342,-3.12711 17.23823,-2.26455 10.39206,1.44698 13.4692,2.99682 8.56138,4.31206 -3.07507,0.82409 -9.33972,0.60072 -14.75,-0.52593 z m -38.81729,-6.55402 c 0.36139,-1.87653 6.75243,-3.71032 8.15156,-2.33894 1.15428,1.13138 -3.263,4.04918 -6.1301,4.04918 -1.67978,0 -2.2568,-0.48819 -2.02146,-1.71024 z M 398.5,909 l -3,-1.98682 3.6849,-0.007 c 4.31674,-0.008 8.8151,1.50719 8.8151,2.96866 0,1.75989 -6.35517,1.10749 -9.5,-0.97525 z m 187.72989,-5.56323 c 1.20332,-1.20331 11.50404,-3.41362 15.96109,-3.4249 6.98689,-0.0177 6.68607,1.63009 -0.52689,2.88617 -6.65409,1.15876 -16.39421,1.49874 -15.4342,0.53873 z M 605.24564,893.75 C 606.42081,890.18715 619.5,888.58143 619.5,892 c 0,1.15631 -1.29435,1.5 -5.64911,1.5 -3.10701,0 -5.99451,0.3375 -6.41667,0.75 -1.22139,1.19345 -2.64024,0.86931 -2.18858,-0.5 z M 477.0099,884.48807 c 3.22157,-3.88175 15.04654,-6.37524 40.4901,-8.53802 34.49794,-2.93242 80.78212,-13.47119 100.89258,-22.97292 7.02047,-3.31701 9.60742,-3.33973 9.60742,-0.0843 0,1.55326 -2.10862,2.77884 -10.25,5.95751 -29.23064,11.41263 -64.25753,18.70601 -115.75,24.10173 -10.725,1.12383 -20.99904,2.24702 -22.8312,2.49597 -2.78256,0.37808 -3.13813,0.21998 -2.1589,-0.95992 z m -53.41325,-6.11806 c 1.17499,-4.85211 4.48574,-8.51837 9.95239,-11.02109 6.28368,-2.87676 20.68534,-4.88051 25.57674,-3.55857 3.71513,1.00404 5.73879,0.21642 -21.19521,8.24937 -4.13045,1.23189 -8.13978,3.30346 -10.79917,5.57981 l -4.22975,3.6205 z m 107.05238,-9.89779 c 0.86608,-2.25695 3.47595,-3.35191 9.74581,-4.08881 5.10506,-0.6 5.60516,-0.48589 5.60516,1.27891 0,3.34763 -2.09267,4.33768 -9.16862,4.33768 -5.6604,0 -6.67262,-0.25014 -6.18235,-1.52778 z m -64.39903,-2.591 c -6.29605,-1.81792 -2.89239,-3.84314 6.5,-3.86757 3.95017,-0.0103 5.25,0.34902 5.25,1.45117 0,3.15829 -5.36175,4.26094 -11.75,2.4164 z m 26.74982,-3.5676 c 12.67049,-5.51459 46.2555,-9.09868 60.50018,-6.45639 l 4,0.74198 -4,0.66482 c -12.5091,2.07909 -56.9622,6.84772 -62,6.65094 -1.42117,-0.0555 -0.9871,-0.51897 1.49982,-1.60135 z M 450.5,848.42275 c 1.1,-0.8325 5.15,-2.40978 9,-3.50507 3.85,-1.09529 8.575,-2.76412 10.5,-3.70852 3.00492,-1.4742 3.457,-2.14745 3.19598,-4.75959 -0.1923,-1.92451 0.45075,-4.00204 1.75,-5.65377 2.47712,-3.14914 2.6219,-5.66007 0.41924,-7.2707 -1.44083,-1.05356 -1.20968,-1.45811 1.94837,-3.40989 4.15684,-2.56907 5.54556,-5.68464 3.46238,-7.76781 -1.1024,-1.1024 -2.05631,-1.19131 -4.16788,-0.3885 -3.87276,1.47242 -4.60809,1.31546 -4.60809,-0.98365 0,-2.70168 4.11207,-4.26334 7.66703,-2.91174 1.98543,0.75485 2.89845,0.68464 3.57252,-0.27476 2.65541,-3.77938 5.05943,-10.95919 7.83882,-23.41131 1.70363,-7.63259 3.97993,-15.89683 5.05842,-18.36498 1.96557,-4.49824 5.49058,-9.01246 7.03752,-9.01246 1.58599,0 0.80878,10.84409 -1.25643,17.53045 -1.14517,3.70762 -4.29517,11.56273 -7,17.45582 C 492.21305,797.87935 490,802.99325 490,803.35048 490,804.91121 497.98026,803.71639 512.37815,800 528.35899,795.87501 532,795.31051 532,796.95785 c 0,2.52514 -9.56392,6.31301 -23.00985,9.11324 -7.75874,1.61583 -15.31912,3.56479 -16.80084,4.33101 -5.48836,2.83815 -7.77195,7.5979 -3.64524,7.5979 0.78432,0 6.13354,-1.575 11.88716,-3.5 13.34689,-4.4655 17.7241,-4.5623 12.81877,-0.28349 -3.18793,2.78076 -5.96518,3.73517 -15.40318,5.29334 -5.14075,0.84871 -10.33185,1.75787 -11.53577,2.02036 -1.58335,0.34521 -3.45081,3.02049 -6.75,9.66982 -2.50858,5.05592 -4.56105,9.32924 -4.56105,9.49628 0,0.16703 1.9125,0.30051 4.25,0.29662 5.74464,-0.01 18.83189,-2.15318 39.25,-6.42894 11.80003,-2.47105 19.44704,-3.53782 25,-3.48755 l 8,0.0724 -6.84309,2.39126 c -10.44034,3.64829 -22.82428,6.05022 -51.22073,9.93452 -14.2649,1.95128 -29.57125,4.21773 -34.01411,5.03656 -10.22864,1.88517 -11.51304,1.87244 -8.92207,-0.0885 z m 54.91939,-94.77221 c -0.35539,-0.92614 -0.3339,-2.91389 0.0478,-4.41722 0.38166,-1.50333 0.93271,-4.44977 1.22456,-6.54765 0.39312,-2.82589 0.91172,-3.66809 2.00125,-3.25 0.80884,0.31038 1.65881,0.56433 1.88883,0.56433 0.99376,0 0.28599,5.30163 -1.23217,9.22976 -2.09549,5.42191 -3.10872,6.5616 -3.93023,4.42078 z M 518.05482,702.25 c 0.46319,-2.0625 1.11073,-5.4375 1.43898,-7.5 0.68485,-4.30309 2.17795,-4.90601 3.09556,-1.25 0.7393,2.94562 -0.14513,7.1038 -2.18014,10.25 -2.20751,3.4129 -3.30123,2.71608 -2.3544,-1.5 z m 45.4597,-90.77936 c 2.47019,-47.50461 12.58471,-94.09755 28.28913,-130.31507 4.60271,-10.61476 4.81797,-10.93395 6.34447,-9.40745 0.81971,0.81971 0.0483,3.97834 -2.91441,11.93333 -12.06997,32.4084 -20.24472,66.61897 -27.76623,116.19909 -1.86737,12.30929 -3.66076,22.64608 -3.98532,22.97063 -0.32455,0.32456 -0.30999,-4.79669 0.0324,-11.38053 z M 542.35748,610 c 1.43813,-10.94662 1.78279,-42.39176 0.70652,-64.46018 -0.95882,-19.66008 -1.69756,-26.44128 -4.11627,-37.78494 C 537.32648,500.15125 536,491.23138 536,487.93293 536,482.05964 538.05183,475 539.75886,475 c 0.4735,0 2.149,7.68052 3.72332,17.06782 2.20541,13.15029 3.09723,16.65058 3.88546,15.25 1.73888,-3.08978 0.88653,-11.35414 -2.30178,-22.31782 -1.6794,-5.775 -3.05625,-11.97662 -3.05966,-13.78138 -0.007,-3.94716 2.25593,-5.19636 4.96803,-2.74194 2.37404,2.14848 4.01498,1.22494 4.06121,-2.2857 0.0195,-1.48004 0.66194,-3.81598 1.42768,-5.19098 1.45954,-2.62083 1.57372,-2.5071 3.01195,3 0.3591,1.375 1.02962,17.125 1.49007,35 0.46044,17.875 1.27497,33.85 1.81006,35.5 l 0.9729,3 1.02855,-2.55891 c 2.68976,-6.69183 3.45759,-18.70192 2.76128,-43.19109 -0.38705,-13.6125 -0.36435,-24.75 0.0504,-24.75 0.41479,0 1.56452,0.73337 2.55497,1.62971 1.68755,1.52721 1.91263,1.42667 3.57874,-1.59849 3.03053,-5.50254 5.34488,-8.03122 7.35051,-8.03122 1.06008,0 1.92742,0.64186 1.92742,1.42635 0,3.03834 -9.08941,63.92463 -11.45534,76.73465 -3.05928,16.56414 -7.33969,33.26279 -11.73237,45.77013 -3.23103,9.19977 -5.26097,12.02372 -6.01962,8.37421 -0.5581,-2.68476 -3.37802,5.91665 -4.61531,14.07775 -1.19662,7.89287 -3.81305,12.17668 -2.81988,4.61691 z m 9.25756,-42.38799 c 1.66945,-6.26955 1.79403,-23.24156 0.22784,-31.04017 -1.96412,-9.78006 -3.02826,-4.08611 -3.51124,18.7877 -0.46605,22.072 0.10312,24.19593 3.2834,12.25247 z M 531.15789,598 c 0,-1.375 0.22698,-1.9375 0.50439,-1.25 0.27741,0.6875 0.27741,1.8125 0,2.5 -0.27741,0.6875 -0.50439,0.125 -0.50439,-1.25 z m 0.53081,-24 c -1.50761,-47.62836 -1.9261,-55.08741 -3.06966,-54.71196 -0.61547,0.20207 -1.23771,2.35743 -1.38276,4.78968 -0.3511,5.88754 -1.08329,8.92228 -2.15268,8.92228 -2.78742,0 -4.1064,-32.02985 -2.07957,-50.5 1.21508,-11.0728 3.07688,-22.75243 3.55125,-22.27806 0.34176,0.34176 4.28736,32.3944 6.38549,51.87342 2.24028,20.79881 3.08156,46.55144 1.99614,61.10489 -1.7981,24.10931 -2.50487,24.28332 -3.24821,0.79975 z M 511.09968,482.30902 C 511.04486,480.55398 511.45,478.83992 512,478.5 c 1.14998,-0.71073 1.14998,0.90919 0,4.5 -0.76461,2.38749 -0.80513,2.35639 -0.90032,-0.69098 z m -20.68634,-7.86218 C 488.36693,469.54909 487.55151,465 488.72001,465 c 2.7337,0 6.82543,8.41504 5.61963,11.5573 -0.92339,2.40632 -2.36221,1.63293 -3.9263,-2.11046 z M 787.8,1143.8 c 2.34397,-2.344 1.25582,-3.3189 -3.3,-2.9565 -2.475,0.1968 -4.5,0.5008 -4.5,0.6754 0,3.2532 5.28293,4.7982 7.8,2.2811 z m 17.95,-3.3626 c 3.89388,-4.0832 4.08641,-5.4374 0.77305,-5.4374 -1.53859,0 -3.0975,0.9471 -4.11501,2.5 -0.98937,1.51 -2.58254,2.5 -4.02305,2.5 -2.5617,0 -3.1363,1.8487 -1.18202,3.803 1.74456,1.7445 4.83406,0.528 8.54703,-3.3656 z m -30.5957,-7.5703 31.6543,-6.2687 0.62886,-3.9327 c 0.34588,-2.163 0.43975,-4.1218 0.20861,-4.353 -0.23114,-0.2311 -4.89646,1.1378 -10.36738,3.0421 -5.47092,1.9044 -18.37317,5.7695 -28.67166,8.5894 -18.1258,4.963 -34.35646,10.5194 -28.10703,9.6223 1.65,-0.2369 17.24443,-3.2516 34.6543,-6.6994 z m -389.96617,-0.4538 c 1.86545,-0.6139 1.05674,-1.005 -4.18813,-2.0254 -11.15923,-2.171 -19.02121,-1.5245 -18.9954,1.5621 0.007,0.8856 20.64699,1.298 23.18353,0.4633 z m -140.69696,-4.4276 C 242.9015,1125.4136 216,1115.0194 216,1116.9773 c 0,1.2341 5.96967,6.0555 8.94363,7.2232 1.406,0.5521 6.38137,1.8146 11.05637,2.8056 4.675,0.9909 8.63906,1.845 8.80902,1.8978 0.16996,0.053 0.0269,-0.3603 -0.31785,-0.9182 z m 573.52922,-42.2979 c -1.13674,-3.8082 -7.3696,-11.6878 -9.24516,-11.6878 -1.65656,0 0.0891,5.0808 4.22096,12.2853 2.1403,3.7319 4.2525,7.7819 4.69379,9 1.35447,3.7388 1.66023,-5.1425 0.33041,-9.5975 z M 382,1044.4628 c -9.075,-1.8436 -19.65,-3.6109 -23.5,-3.9274 l -7,-0.5754 10,2.597 c 17.1984,4.4666 21.77571,5.2844 29.5,5.2708 l 7.5,-0.013 -16.5,-3.3519 z m 47.42409,-4.34 c 0.5406,-0.8747 -18.21854,-4.2125 -22.61061,-4.023 -1.29057,0.056 0.78158,1.1387 4.68652,2.4496 7.00941,2.353 16.90542,3.2217 17.92409,1.5734 z M 327.98293,1038.25 c -0.0221,-0.971 -9.96514,-5.2639 -12.17391,-5.256 -2.31378,0.01 -3.3776,1.9875 -1.11804,2.0802 0.99496,0.041 3.60902,0.9074 5.80902,1.9258 4.22207,1.9545 7.51147,2.504 7.48293,1.25 z m 34.80848,-6.0999 c 0.77738,-0.4932 -2.46951,-1.2815 -8.1572,-1.9805 -5.19674,-0.6386 -10.27788,-1.4543 -11.29141,-1.8126 -1.415,-0.5001 -1.58168,-0.3677 -0.71801,0.5706 2.9182,3.1703 16.76198,5.3825 20.16662,3.2225 z m 106.41046,-2.6994 c -7.35865,-2.314 -22.3018,-3.4546 -43.91246,-3.3518 -19.18586,0.091 -20.45134,0.205 -16.40645,1.475 7.56385,2.3748 17.87246,3.167 41.61704,3.1982 20.74881,0.027 22.57931,-0.1021 18.70187,-1.3214 z m 54.34358,-0.9052 c 4.24851,-4.2485 2.87311,-5.6332 -3.41734,-3.4403 -2.73227,0.9525 -5.12811,3.4422 -5.12811,5.3291 0,1.6968 6.36716,0.2894 8.54545,-1.8888 z M 758,1022.8145 c 0,-1.2021 -0.97844,-3.2271 -2.17431,-4.5 -4.04743,-4.3083 -5.2204,-2.1142 -1.83665,3.4355 2.2892,3.7546 4.01096,4.2115 4.01096,1.0645 z m -294.05955,-0.5661 c 4.72687,-2.4022 4.83679,-3.8585 0.34723,-4.6004 -8.44086,-1.395 -13.39065,-0.428 -14.65338,2.8626 -1.31171,3.4183 8.62448,4.6253 14.30615,1.7378 z m -27.37464,-2.1419 c -0.30373,-0.4915 0.10199,-2.7478 0.9016,-5.0141 1.44064,-4.0832 1.43451,-4.1103 -0.67632,-2.9806 -1.17158,0.627 -6.36882,1.1959 -11.54942,1.2641 -8.61562,0.1135 -9.58232,0.3255 -11.33047,2.4849 -1.05116,1.2984 -1.9112,2.7609 -1.9112,3.25 0,0.4891 4.97228,0.8365 11.04951,0.7721 6.07722,-0.064 11.32722,0.1605 11.66666,0.4999 0.95485,0.9549 2.4706,0.7284 1.84964,-0.2763 z M 395,1017.0667 c 0,-0.5867 -0.95937,-1.0667 -2.13192,-1.0667 -1.17256,0 -3.61734,-1.575 -5.43285,-3.5 -1.81551,-1.925 -3.51212,-3.5 -3.77025,-3.5 -0.5687,0 -2.66498,5.8445 -2.66498,7.4301 0,0.7072 2.62543,1.2388 7,1.4174 4.47027,0.1825 7,-0.1 7,-0.7808 z m 110.69807,-30.56438 c 6.6442,-6.06403 12.12516,-13.01242 11.0849,-14.05268 -0.49438,-0.49438 -19.48451,13.58572 -27.55903,20.43345 -2.84258,2.4107 -5.8925,5.48832 -6.77761,6.83916 -2.94408,4.49325 15.05888,-5.74246 23.25174,-13.21993 z m 213.39739,-2.18177 c -1.12545,-3.77906 -2.76463,-7.75967 -3.64262,-8.84579 -1.51729,-1.87697 -1.56419,-1.80144 -0.94719,1.52524 0.35703,1.925 0.89857,5.1875 1.20342,7.25 0.31447,2.12762 1.1171,3.75 1.85521,3.75 0.71552,0 1.59736,0.93391 1.95964,2.07536 0.36228,1.14145 0.8745,1.85956 1.13826,1.59579 0.26376,-0.26376 -0.44126,-3.57153 -1.56672,-7.3506 z m 9.32442,-5.9205 c -0.76141,-2.52997 -2.07396,-10.29247 -2.91678,-17.25 -1.73138,-14.29262 -3.68736,-21.59642 -6.84078,-25.54404 -2.10938,-2.64063 -2.24013,-2.66804 -5.33999,-1.1193 l -3.17766,1.5876 2.42396,5.29464 c 1.33319,2.91205 3.52539,10.27437 4.87158,16.36071 2.76409,12.49695 4.50834,17.20303 8.14162,21.96651 3.49069,4.57654 4.47076,4.12895 2.83805,-1.29612 z M 332.80687,907.18924 c 2.54,-1.34931 5.10403,-2.03491 6.25,-1.67119 2.45136,0.77803 2.44465,-0.18326 -0.0296,-4.24121 -1.86472,-3.05831 -5.57188,-4.92864 -8.09918,-4.08621 -0.9889,0.32964 -3.50259,5.83932 -5.4981,12.0511 -0.63712,1.98327 0.23827,1.73971 7.37687,-2.05249 z m 152.6076,-9.05085 c 0.29287,-0.47388 -3.44513,-1.40517 -8.30668,-2.06953 -7.55628,-1.03262 -9.36665,-0.98754 -12.47348,0.31058 -1.99887,0.83518 -3.63431,1.76647 -3.63431,2.06953 0,0.91891 23.84205,0.61562 24.41447,-0.31058 z M 449.5,897.13851 c 3.63452,-0.67804 3.26903,-0.80189 -4,-1.35538 -4.4,-0.33504 -12.88378,-1.77481 -18.85285,-3.1995 -5.96907,-1.42468 -13.24097,-2.87101 -16.15977,-3.21406 -5.97368,-0.70209 -15.18892,0.36111 -13.85802,1.59885 0.74638,0.69414 25.931,5.29545 34.87064,6.37098 5.42879,0.65315 13.93076,0.55826 18,-0.20089 z M 397,873.14079 c 0,-0.47257 1.83824,-2.94757 4.08499,-5.5 4.36482,-4.95871 3.18605,-6.62913 -1.33428,-1.89079 -2.94554,3.0876 -5.27704,8.25 -3.72596,8.25 0.53639,0 0.97525,-0.38664 0.97525,-0.85921 z m 30,-23.21387 c 0,-2.74172 -1.70968,-3.21978 -2.35268,-0.65786 -0.31132,1.24039 -2.60932,4.64902 -5.10668,7.57475 -2.81015,3.29218 -4.54064,6.2915 -4.54064,7.86994 0,2.15461 0.93119,1.34545 6,-5.21375 3.3,-4.2703 6,-8.57819 6,-9.57308 z M 450.01085,816.5 c 1.63618,-3.3 3.23935,-7.575 3.5626,-9.5 l 0.58773,-3.5 -3.02869,4.66366 c -3.53683,5.44611 -11.14959,20.16556 -11.09494,21.45231 0.0798,1.8792 7.14598,-7.41358 9.9733,-13.11597 z m -18.81186,-5.74535 c 2.03445,-4.5045 3.49518,-8.39382 3.24606,-8.64293 -0.84472,-0.84473 -5.69541,4.37093 -7.07393,7.60616 -1.4673,3.44361 -1.86037,9.30018 -0.62112,9.25444 0.4125,-0.0152 2.41455,-3.71317 4.44899,-8.21767 z m -4.48332,-19.58395 c 3.12994,-4.23346 5.77816,-9.8708 9.20735,-19.59993 1.73099,-4.91108 4.30753,-11.06103 5.72563,-13.66656 2.26937,-4.16958 2.53254,-5.64511 2.19587,-12.31198 -0.30216,-5.98366 -0.81526,-8.00741 -2.44284,-9.635 l -2.06035,-2.06034 -1.2555,5.80156 C 437.39531,742.8893 433.7524,754.725 429.99047,766 c -7.46244,22.36596 -9.11938,29.37044 -6.73091,28.45389 0.78992,-0.30312 2.34517,-1.78055 3.45611,-3.28319 z m 15.65543,-4.37927 c -0.27768,-0.44929 0.20022,-2.23031 1.06201,-3.9578 1.86336,-3.7352 2.02637,-6.15346 0.37774,-5.60391 -1.97948,0.65982 -4.89515,5.21018 -5.74071,8.95928 l -0.79709,3.53421 2.80146,-1.05744 c 1.54081,-0.58159 2.57427,-1.42504 2.29659,-1.87434 z m 49.57222,-35.62319 c 1.13118,-3.35783 2.03866,-7.58184 2.01664,-9.38669 l -0.04,-3.28155 -1.53617,2.8345 c -3.24534,5.98821 -9.31229,22.36872 -9.87626,26.6655 l -0.59065,4.5 3.98491,-7.61331 c 2.19169,-4.18732 4.9104,-10.36062 6.04157,-13.71845 z m 120.47215,9.32786 c -3.72529,-15.35177 -6.30459,-35.13819 -7.43882,-57.06475 L 603.94564,683.5 l -3.47282,-3.48333 c -4.11766,-4.13013 -3.86916,-6.03374 -2.43106,18.6224 1.25536,21.52313 3.20914,35.55223 6.56306,47.12587 2.35664,8.1323 9.32087,25.6427 9.94884,25.01473 0.15812,-0.15811 -0.80407,-4.78572 -2.13819,-10.28357 z m -17.35679,-22.45271 c -1.11313,-9.15496 -3.39885,-17.67697 -5.24181,-19.54339 -1.0955,-1.10945 -0.40512,7.24312 1.36382,16.5 1.14146,5.97332 3.79152,13.36112 4.5284,12.62424 0.25231,-0.2523 -0.0404,-4.56368 -0.65041,-9.58085 z m -91.66041,-44.04668 c 7.79136,-31.61545 10.97581,-57.51473 9.03927,-73.51688 -0.84055,-6.94565 -0.84828,-6.91128 -1.57868,7.02017 -0.67281,12.8329 -2.71875,26.55436 -9.24451,62 -2.63286,14.30077 -4.01142,24.23041 -3.2596,23.47858 0.26684,-0.26683 2.53642,-8.80867 5.04352,-18.98187 z m 110.18746,2.24421 C 614.20811,692.12531 613.03922,689 610.87756,689 c -1.00363,0 -1.16221,8.33491 -0.22517,11.83453 0.82482,3.08048 2.06698,1.13525 2.93334,-4.59361 z M 476.0894,685.23872 c 1.12571,-6.1937 1.86852,-12.2687 1.65069,-13.5 -0.34242,-1.93551 -0.63664,-1.70138 -2.17236,1.72874 -1.29722,2.89742 -1.8678,7.21267 -2.1156,16 -0.18662,6.6179 -0.1301,10.90754 0.1256,9.53254 0.25571,-1.375 1.38596,-7.56758 2.51167,-13.76128 z M 601.5,649.75058 c 0,-11.68782 0.3985,-30.70058 0.88557,-42.25058 0.48706,-11.55 0.62528,-20.76323 0.30717,-20.47384 -0.99362,0.90389 -5.58688,29.89227 -6.73006,42.47384 -1.26731,13.94766 -0.21622,25.47642 3.21377,35.25 1.20638,3.4375 2.22269,6.25026 2.25848,6.25058 0.0358,3.2e-4 0.0651,-9.56218 0.0651,-21.25 z m -112.41251,15.08595 c 1.72884,-3.23038 0.37657,-18.85121 -1.45031,-16.7532 -0.19955,0.22917 -0.62033,4.57917 -0.93506,9.66667 -0.56987,9.21159 0.13205,11.29688 2.38537,7.08653 z m -4.53077,-40.36621 c 0.78935,-5.26374 -1.49294,-16.46481 -4.59292,-22.54128 -1.15683,-2.26757 -2.28714,-3.93903 -2.5118,-3.71437 -0.22467,0.22466 0.0291,3.08077 0.56397,6.3469 0.53484,3.26614 0.97896,8.63843 0.98693,11.93843 0.008,3.3 0.30695,8.43595 0.66441,11.41322 0.64639,5.38369 0.65968,5.40119 2.4365,3.20691 0.98261,-1.21348 2.08642,-4.20589 2.45291,-6.64981 z M 588.22095,620.75 c 1.9123,-3.5936 2.26295,-5.79447 2.27032,-14.25 0.008,-9.6252 -1.98784,-22.5 -3.48862,-22.5 -0.39824,0 -1.00784,2.3625 -1.35467,5.25 -0.73546,6.12305 -0.87494,35.75 -0.1683,35.75 0.26382,0 1.49739,-1.9125 2.74127,-4.25 z m -93.92298,-31.58131 c -0.62938,-9.71462 -1.99218,-11.20605 -2.43853,-2.66869 -0.22803,4.36152 1.71896,13.25493 2.68938,12.28451 0.19222,-0.19222 0.0793,-4.51933 -0.25085,-9.61582 z M 502.66541,572 c -0.28856,-4.125 -1.34382,-9.75 -2.34503,-12.5 l -1.82038,-5 -0.33914,4 c -0.18652,2.2 0.46676,8.86937 1.45174,14.82082 1.42179,8.5908 1.97496,10.34253 2.68416,8.5 0.49131,-1.27645 0.65721,-5.69582 0.36865,-9.82082 z m 10.71956,1.7496 c -0.16889,-12.11227 -0.20314,-12.32028 -2.45128,-14.88882 L 508.86737,556.5 509.49082,567 c 0.39038,6.57466 1.17148,11.34114 2.08937,12.75 0.80625,1.2375 1.56804,2.24982 1.69286,2.2496 0.12482,-2.2e-4 0.17519,-3.71272 0.11192,-8.25 z m -23.60482,-28.57824 c -0.41171,-5.75409 -1.24023,-8.20754 -5.26524,-15.59151 -4.52435,-8.30003 -4.71692,-8.96225 -3.64578,-12.53739 2.50868,-8.37324 0.36972,-15.30876 -8.22802,-26.67914 -3.47844,-4.60018 -5.2833,-8.35564 -7.2085,-14.99912 -3.16124,-10.90876 -7.56599,-20.30758 -11.75086,-25.07389 -3.70808,-4.22326 -11.77046,-8.26663 -16.51121,-8.28054 -3.21613,-0.009 -3.30589,0.0975 -2.63713,3.14234 1.6152,7.35394 8.94735,28.03446 12.95697,36.54543 5.96128,12.65365 15.58726,26.55816 17.24107,24.90434 0.34588,-0.34588 -0.40099,-3.54611 -1.65972,-7.11161 -1.32393,-3.7502 -1.98634,-7.22197 -1.57152,-8.2365 1.04202,-2.54848 3.49768,3.57799 9.02401,22.5134 5.1481,17.63943 9.58315,27.70022 14.98049,33.98283 2.00812,2.3375 3.90154,4.25 4.20758,4.25 0.30604,0 0.33658,-3.07289 0.0679,-6.82864 z M 458.66667,487.33333 C 458.3,486.96667 458,483.77917 458,480.25 c 0,-4.68656 0.33703,-6.3055 1.25,-6.00436 2.03642,0.67169 3.71948,4.95422 3.73526,9.50436 0.012,3.45991 -0.32608,4.25 -1.81859,4.25 -1.00834,0 -2.13334,-0.3 -2.5,-0.66667 z m 40.30517,38.99598 c -1.66903,-8.08829 -4.6498,-15.7279 -6.94818,-17.80789 -1.88598,-1.70679 -1.88309,-1.56621 0.11532,5.61397 2.17861,7.82762 6.8568,19.20216 7.59427,18.46469 0.24281,-0.24281 -0.0998,-3.06466 -0.76141,-6.27077 z m 136.84124,-23.75225 c 8.34408,-8.94584 12.57279,-15.38688 11.99572,-18.27153 -0.40476,-2.02331 -16.0407,15.75068 -21.0588,23.93839 -4.10561,6.69886 -5.18642,11.28878 -1.47315,6.25608 1.21742,-1.65 5.95872,-7.01532 10.53623,-11.92294 z m 20.15187,-47.23564 c 4.09231,-1.67591 5.32264,-3.28997 3.8554,-5.05788 -1.85919,-2.24019 -4.97809,-1.39604 -8.45227,2.28766 -5.45976,5.78903 -4.3733,6.44376 4.59687,2.77022 z M 624.5,398.49259 c 1.1,-0.9025 1.42136,-1.346 0.71413,-0.98556 -0.70723,0.36044 -6.19214,0.11355 -12.18868,-0.54864 -11.15968,-1.23235 -16.38565,-0.88036 -19.36571,1.30433 -1.37371,1.00707 1.15231,1.29621 13.57627,1.55403 12.98628,0.26948 15.56243,0.0719 17.26399,-1.32416 z M 384.14835,392.57374 C 385.5058,389.59448 384.49429,385 382.48095,385 381.37048,385 381,386.25081 381,390 c 0,5.37548 1.36381,6.49038 3.14835,2.57374 z m 199.32128,-3.71105 c 1.12136,-1.11958 -9.73927,-3.29 -16.46963,-3.29134 -4.53962,-9e-4 -7.61747,0.59134 -10.20517,1.96368 L 553.08965,389.5 h 14.87083 c 8.17895,0 15.15807,-0.28679 15.50915,-0.63731 z M 532,387.53518 c 0,-2.89594 -8.94261,-5.05509 -10.5,-2.53518 -1.05641,1.7093 0.50576,3.24011 2.02218,1.98159 1.00342,-0.83276 2.05812,-0.72848 4.16097,0.41141 3.57088,1.93566 4.31685,1.96023 4.31685,0.14218 z m -83.22781,-34.75176 c -1.92782,-2.90345 -6.27666,-6.11714 -7.64747,-5.6513 -1.47365,0.50078 5.60539,7.86788 7.56023,7.86788 1.38575,0 1.39545,-0.24631 0.0872,-2.21658 z m 115.3279,-6.79461 c 1.98005,-0.55002 4.43716,-1.92498 5.46024,-3.05547 1.59233,-1.75951 1.64991,-2.18842 0.39991,-2.97908 -3.73889,-2.36494 -10.36944,-0.3823 -14.88455,4.45073 L 552.65137,347 l 3.92432,-0.006 c 2.15837,-0.003 5.54435,-0.45559 7.5244,-1.00561 z m -39.69594,-1.5904 c 1.19858,-0.45994 0.45257,-1.53551 -3.16821,-4.5678 -9.38677,-7.86111 -16.65116,-9.93129 -19.67924,-5.6081 -3.40427,4.86028 -2.12202,5.56564 17.9433,9.87057 1.65,0.354 3.0757,0.70288 3.16821,0.77528 0.0925,0.0724 0.87369,-0.13908 1.73594,-0.46995 z m 91.80972,-0.44101 c 5.62278,-1.56162 5.60198,-2.9574 -0.0441,-2.9574 -3.45342,0 -5.6614,0.59413 -7.30902,1.96673 l -2.36078,1.96673 3,0.0277 c 1.65,0.0152 4.67124,-0.43646 6.71387,-1.00375 z m -68.41421,-1.36239 c 1.48519,-0.77274 3.79128,-2.57274 5.12465,-4 L 555.34863,336 h -8.17432 c -6.84098,0 -8.50054,0.32623 -10.17431,2 -2.45821,2.45821 -2.51623,3.59995 -0.25,4.9199 2.51725,1.46616 7.91219,1.30754 11.04966,-0.32489 z M 496.22673,332.25 c 0.84519,-0.9625 1.84526,-2.7625 2.22238,-4 0.53598,-1.75881 0.28892,-2.25093 -1.13172,-2.25428 -0.99957,-0.002 -3.84239,-1.37588 -6.31739,-3.05227 -10.39807,-7.04293 -14.81285,-8.32779 -18.17126,-5.28846 -2.1853,1.97767 -2.35638,3.34501 -0.41854,3.34501 0.77561,0 3.75848,1.9125 6.6286,4.25 11.57653,9.42823 14.13919,10.47191 17.18793,7 z m 23.63246,-3.76148 c 0.21019,-1.09369 0.78469,-3.0483 1.27668,-4.34358 0.86493,-2.27716 0.97902,-2.29968 3.44978,-0.68078 3.10287,2.03308 10.54245,4.74108 11.20494,4.07858 1.11054,-1.11054 -2.29338,-6.75138 -4.88178,-8.0899 -3.6836,-1.90486 -6.45392,-1.83463 -9.98836,0.25322 -3.22235,1.90349 -6.39105,7.62519 -5.5036,9.93784 0.80122,2.08796 3.9778,1.26179 4.44234,-1.15538 z m 94.1,-3.10764 c 1.71196,-1.44051 3.78304,-3.91551 4.60241,-5.5 1.41229,-2.73107 1.381,-2.88088 -0.60166,-2.88088 -2.64823,0 -5.25648,1.35525 -11.16374,5.8007 -2.58708,1.94689 -4.47303,3.91319 -4.19098,4.36955 1.19132,1.92759 8.26067,0.81347 11.35397,-1.78937 z M 633,316.13817 c 0,-1.96625 -2.04458,-1.24743 -5.07692,1.78491 -1.70511,1.7051 -2.92308,3.9875 -2.92308,5.47765 0,2.44196 0.17635,2.36327 4,-1.7849 2.2,-2.38672 4,-4.85167 4,-5.47766 z m -52.48802,1.93055 c 3.53974,-1.74261 8.95753,-5.47301 12.03952,-8.28979 5.27242,-4.81869 11.41828,-13.71565 11.43912,-16.55966 0.0183,-2.50118 -22.74251,13.23971 -32.99133,22.81608 l -6.49929,6.07285 4.78804,-0.43555 c 2.63342,-0.23955 7.6842,-1.86132 11.22394,-3.60393 z m -21.49358,-0.57804 c 2.72355,-1.38013 8.15061,-5.31763 12.06013,-8.75 20.15168,-17.69223 23.05954,-19.27588 33.63429,-18.31763 6.70127,0.60726 7.37087,0.49021 9.01313,-1.57548 3.82246,-4.80806 7.19103,-7.84757 8.69713,-7.84757 4.3352,0 -1.51165,11.19476 -9.43204,18.05919 C 602.63043,308.03851 594,316.26369 594,317.15851 c 0,2.91747 9.75208,-1.30274 19.20656,-8.31164 7.04288,-5.22111 16.55308,-9.78059 20.48916,-9.82313 1.5509,-0.0168 4.1033,-2.46667 8.69131,-8.34228 7.92673,-10.15133 14.13375,-15.9888 20.06511,-18.87047 4.09614,-1.99006 4.58243,-2.6212 5.58261,-7.24547 0.61078,-2.82397 0.95613,-11.48193 0.78043,-19.56552 L 668.5,230.5 l -3.59208,3.65376 c -2.02715,2.06195 -4.58138,6.29911 -5.86286,9.72575 C 656.4653,250.77773 653.04917,255 650.04775,255 c -2.70982,0 -2.59506,-0.68023 1.01222,-6 8.75573,-12.91233 13.77249,-27.85699 12.41468,-36.98267 l -0.66698,-4.48266 -3.93686,4.48266 C 656.70553,214.4828 649.45249,223.025 642.75294,231 c -20.32483,24.19424 -30.12828,33.60083 -40.537,38.896 -5.01359,2.55053 -9.21594,4.21972 -9.21594,3.66061 0,-0.21664 5.83596,-5.40506 12.96879,-11.52981 C 633.58117,238.31687 642,225.32919 642,206.44165 c 0,-6.43597 0.31544,-8.50612 1.25,-8.20335 1.31958,0.4275 3.18765,5.74224 4.22196,12.0117 0.34027,2.0625 0.98662,3.75 1.43634,3.75 0.44972,0 2.48068,-3.27639 4.51325,-7.28087 3.15255,-6.21102 3.54367,-7.68041 2.66176,-10 -1.018,-2.67755 -0.97273,-2.71913 2.96049,-2.71913 3.85008,0 3.97057,-0.0993 3.33711,-2.75 C 658.05682,173.15612 646.78045,157.67951 629.5,146.12156 616.89084,137.68798 585,122.83044 585,125.38957 c 0,1.87313 3.02511,4.22847 6.49441,5.05651 7.24784,1.72991 7.39693,5.11683 0.25559,5.80641 -4.72603,0.45635 -5.57805,0.21936 -8.53692,-2.37463 -9.62389,-8.4371 -20.83759,-10.20764 -31.71308,-5.00721 -7.96347,3.80796 -11.04958,6.39594 -30.71061,25.75361 -15.56923,15.32901 -16.64544,16.62416 -15.75656,18.96209 2.08203,5.47615 -4.66028,13.85072 -12.11022,15.04202 -4.56997,0.73076 -5.07087,2.57316 -1.36053,5.00427 l 2.56209,1.67874 -5.00618,5.09431 C 484.77215,204.82803 482,209.30142 482,211.89191 c 0,0.41894 1.33723,0.56544 2.97162,0.32556 4.43078,-0.6503 5.66718,2.71173 4.21659,11.46577 -0.61282,3.69825 -0.97496,6.86334 -0.80476,7.03355 0.17021,0.1702 1.93798,-0.37097 3.92839,-1.20262 3.39503,-1.41853 3.68292,-1.39248 4.65354,0.42114 0.56904,1.06326 1.03462,3.08779 1.03462,4.49895 0,2.31385 -0.38124,2.56574 -3.88337,2.56574 -3.18187,0 -3.99229,0.40644 -4.48634,2.25 -0.99199,3.70159 -0.71381,7.25352 0.72185,9.2169 1.22015,1.66865 1.40474,1.38241 1.8911,-2.93256 0.53739,-4.76774 1.82135,-6.49 4.85997,-6.51903 1.31618,-0.0126 1.51969,0.8538 1.13675,4.83921 -0.28221,2.93699 0.19594,7.13311 1.21052,10.62312 l 1.67697,5.7686 3.68628,-0.56962 c 2.02745,-0.31329 5.29546,-0.86486 7.26224,-1.22572 2.6588,-0.48782 4.00533,-0.22674 5.25,1.01793 2.55401,2.554 2.08528,4.53034 -1.07597,4.53675 -3.60231,0.007 -10.47097,1.93141 -10.02587,2.80853 0.19142,0.37724 2.46423,5.11869 5.05068,10.53655 6.43772,13.48516 13.26218,22.44568 15.4379,20.26997 0.23454,-0.23455 1.10893,-3.05764 1.94308,-6.27354 2.7581,-10.63333 7.41119,-15.48675 12.45132,-12.98737 2.59646,1.28757 3.76217,5.88793 2.02299,7.98352 -0.55793,0.67227 -1.47931,2.44505 -2.04751,3.93953 -0.97013,2.55164 -0.864,2.71723 1.74141,2.71723 1.68678,0 6.01287,-2.14285 11.03468,-5.46584 4.5431,-3.00621 9.87624,-5.76901 11.85142,-6.13955 4.61118,-0.86507 10.7899,0.62688 10.7899,2.60539 0,2.2304 -8.31121,7.37167 -17.70787,10.95399 -11.1485,4.25018 -16.27522,7.39141 -19.27982,11.81309 -3.03209,4.46212 -3.15439,5.57149 -0.52213,4.73604 1.47934,-0.46953 3.21196,0.53396 6.75,3.90943 2.6179,2.4976 5.56228,4.55152 6.54306,4.56427 0.98079,0.0128 4.01161,-1.10602 6.73516,-2.48614 z M 546,283.0567 c 0,-1.86012 -0.77592,-3.48677 -2.10841,-4.42008 -2.99917,-2.1007 -1.4734,-3.83639 2.68639,-3.05601 2.44577,0.45883 3.42202,0.27739 3.42202,-0.63599 0,-0.70287 0.3036,-0.97436 0.67466,-0.60329 0.37107,0.37106 0.76127,3.14606 0.86713,6.16667 0.19007,5.42375 0.15683,5.492 -2.67466,5.492 C 546.36037,286 546,285.63005 546,283.0567 Z m 0,-15.62244 C 546,264.38999 551.87576,260 555.95034,260 c 2.39794,0 2.70212,2.21362 0.54966,4 -0.825,0.68469 -1.5,0.95564 -1.5,0.60212 0,-0.35352 -1.78207,0.26638 -3.96016,1.37756 C 546.87023,268.10685 546,268.35802 546,267.43426 Z M 513.74071,249.25 c -8.52805,-8.90539 -9.47108,-23.05481 -3.34904,-50.25 2.04292,-9.075 3.98409,-20.23678 4.3137,-24.80396 l 0.59931,-8.30395 6.03611,-5.46236 c 3.31985,-3.0043 7.7513,-5.97625 9.84766,-6.60434 C 534.39461,152.8648 535,152.24967 535,149.9525 c 0,-1.50201 0.82586,-3.75083 1.83525,-4.99737 1.81619,-2.2429 1.94513,-2.25406 12.42009,-1.07537 18.60338,2.09334 45.12077,9.56408 57.74466,16.2684 l 5.5,2.92094 -5,-0.62205 c -2.75,-0.34213 -10.4,-1.95982 -17,-3.59487 -23.19615,-5.74648 -33.81651,-4.86856 -43.20378,3.57141 -3.70471,3.33085 -5.89068,4.51386 -8.78662,4.75518 -3.27756,0.27311 -4.00138,0.7706 -4.83224,3.32123 -0.92271,2.83258 -2.31662,4.45019 -3.86449,4.48469 -0.37792,0.008 -0.43008,-1.56872 -0.1159,-3.50476 0.76131,-4.69141 -1.31496,-3.93224 -5.61266,2.0522 -7.43221,10.34917 -11.81464,25.4571 -12.75522,43.97212 -0.64112,12.62045 1.10014,25.55754 4.26318,31.67419 1.8247,3.52857 1.47202,3.5422 -1.85156,0.0716 z M 585,245.61444 C 585,241.96186 587.31081,239 590.16052,239 c 3.28934,0 3.69516,1.78883 1.08948,4.80232 -2.35613,2.72488 -6.25,3.85387 -6.25,1.81212 z m -64.47056,66.69079 c -0.94564,-5.04068 -4.74907,-12.24232 -8.18619,-15.50022 -2.78311,-2.63799 -2.89353,-2.65702 -5.22027,-0.89989 -2.23066,1.68458 -2.30001,2.03523 -1.12623,5.69499 1.60744,5.01193 5.39553,10.05834 9.36908,12.48129 4.84423,2.95387 5.97782,2.56394 5.16361,-1.77617 z M 466,304.26809 C 466,301.90195 460.35887,297 457.63594,297 c -5.22469,0 -4.58831,5.60123 1.07349,9.44852 3.4291,2.33014 3.81062,2.39082 5.48794,0.87287 0.99144,-0.89725 1.80263,-2.27124 1.80263,-3.0533 z m 203.41232,-12.13491 c 11.06115,-16.41189 16.76468,-27.16843 19.01932,-35.86936 2.08349,-8.04047 2.02215,-23.44556 -0.12968,-32.56641 l -1.69805,-7.19741 -0.72329,6 c -0.39781,3.3 -1.19676,11.625 -1.77544,18.5 -1.0299,12.23567 -3.26027,22.50672 -5.3202,24.5 -0.70942,0.68647 -0.83001,-0.62275 -0.38461,-4.17578 0.39691,-3.16619 0.25101,-5.42165 -0.37577,-5.80902 -0.60575,-0.37437 -1.02945,0.51507 -1.03647,2.17578 -0.0297,7.0363 -3.61967,15.98242 -11.57318,28.84033 -4.60431,7.44348 -6.66773,12.43461 -7.84199,18.96869 -0.96416,5.36501 -0.21627,4.52064 11.83936,-13.36682 z M 537.25,300.94853 C 540.84021,297.05793 540.91638,294 537.42308,294 533.97403,294 529,299.03805 529,302.53148 c 0,2.41894 0.27282,2.62144 2.75,2.04123 1.5125,-0.35425 3.9875,-1.98513 5.5,-3.62418 z m -59.55149,-2.60525 c 0.88735,-2.31238 -1.79387,-7.32911 -4.246,-7.94456 -5.20359,-1.30601 -7.356,0.86536 -6.0431,6.09636 0.98038,3.90616 8.95005,5.33772 10.2891,1.8482 z m 176.02212,-3.19385 C 654.82789,292.43586 654.79572,292 653.48817,292 c -1.60762,0 -5.47812,5.55545 -5.48443,7.87197 -0.006,2.36543 4.26422,-1.16243 5.71689,-4.72254 z M 447.98494,282.75 c -0.008,-0.1375 -0.64186,-2.05 -1.40797,-4.25 -1.19308,-3.42616 -1.19092,-4.48377 0.0151,-7.37212 1.76266,-4.22161 1.77214,-4.12788 -0.41772,-4.12788 -1.00412,0 -2.91662,1.18607 -4.25,2.63572 l -2.42431,2.63571 2.33565,-1.21673 c 3.02637,-1.57657 3.33667,-1.14233 2.14725,3.00493 -0.5406,1.88494 -0.9829,4.66764 -0.9829,6.18377 0,2.27371 0.43794,2.7566 2.5,2.7566 1.375,0 2.49322,-0.1125 2.48494,-0.25 z M 498,282.10841 c 0,-0.49038 1.125,-1.17395 2.5,-1.51905 2.58392,-0.64853 3.24531,-2.0107 1.5,-3.08936 -0.55,-0.33992 -1,-1.71648 -1,-3.05902 C 501,272.53965 500.47605,272 498.63005,272 c -2.08541,0 -2.43421,0.57014 -2.90521,4.74886 -0.2944,2.61187 -0.32636,5.08687 -0.071,5.5 0.64551,1.04445 2.3462,0.94264 2.3462,-0.14045 z m -33.67204,-12.15174 c 3.57929,-2.81547 4.38247,-7.83765 2.02517,-12.66318 C 465.33391,255.20707 463.825,253.5 463,253.5 c -2.33157,0 -4.99672,6.44279 -4.99845,12.08333 -0.002,7.08064 1.53433,8.14279 6.32641,4.37334 z M 419,263.52475 c 0,-3.32383 -0.11258,-3.43244 -2.58392,-2.49285 -1.42115,0.54033 -2.99615,0.72763 -3.5,0.41624 -0.50384,-0.3114 -0.91608,-0.083 -0.91608,0.50754 0,0.83839 5.60435,5.02345 6.75,5.04058 0.1375,0.002 0.25,-1.56012 0.25,-3.47151 z m 76,-0.0905 C 495,260.57648 493.38237,257 492.08982,257 c -1.40514,0 -2.1896,6.17484 -0.97101,7.64316 1.84629,2.22464 3.88119,1.59081 3.88119,-1.2089 z m -51.41003,-5.93122 c 1.2392,-1.89126 1.54033,-4.19127 1.2414,-9.48165 -0.54787,-9.69592 -2.07924,-10.8364 -5.28972,-3.93951 -2.87437,6.17485 -3.27138,12.04553 -0.97022,14.34669 2.15766,2.15766 3.1139,1.98131 5.01854,-0.92553 z m -31.16117,-8.93069 c -0.49914,-1.98876 -0.0596,-2.71191 2.43129,-4 1.67232,-0.86479 3.7904,-1.57235 4.70683,-1.57235 1.22738,0 1.51858,-0.5926 1.10564,-2.25 -0.30833,-1.2375 -0.93973,-3.8152 -1.40312,-5.72821 -0.70977,-2.93017 -1.45777,-3.65084 -4.74723,-4.57377 -2.1476,-0.60255 -4.07054,-1.59302 -4.27322,-2.20104 -0.20267,-0.60801 0.3334,-3.469 1.19126,-6.35773 1.72143,-5.79667 2.05463,-12.46536 0.66573,-13.32375 -1.63107,-1.00805 -4.37691,7.82021 -4.87245,15.6656 -0.52075,8.24459 1.04045,12.7689 4.40615,12.7689 1.18017,0 1.42352,0.5837 0.93803,2.25 -1.3035,4.4739 -1.81324,8.69385 -1.23285,10.20631 0.94126,2.45288 1.7549,1.78935 1.08394,-0.88396 z M 463.595,245 c 1.15912,0 1.35221,-0.76449 0.8582,-3.39779 -0.35059,-1.86879 -0.10643,-5.95559 0.54256,-9.0818 1.25073,-6.02472 0.63619,-11.55236 -1.09219,-9.82398 -1.82306,1.82306 -5.86119,14.76541 -5.88248,18.85357 -0.0239,4.59135 1.84078,7.44822 3.23517,4.95657 C 461.71998,245.67796 462.77241,245 463.595,245 Z m 210.98115,-24.74203 c -1.41124,-2.60158 -1.49835,-2.17302 -1.53611,7.55777 -0.0252,6.4916 0.42335,11.12547 1.20996,12.5 2.01727,3.52498 2.34036,-16.34464 0.32615,-20.05777 z m -249.4805,9.8171 C 426.57385,225.14131 425.78404,223 422.48607,223 c -2.42332,0 -2.53904,0.22322 -1.94406,3.75 1.44534,8.56743 2.70698,9.48869 4.55364,3.32507 z m 17.31546,-1.1518 C 445.14804,225.67061 445.59098,223.46186 444,221 c -0.78939,-1.2215 -0.97222,-1.09649 -0.98469,0.67327 -0.008,1.19531 -1.14031,3.51027 -2.51531,5.14436 -2.55683,3.03862 -3.21409,5.18237 -1.58889,5.18237 0.5011,0 2.0761,-1.38453 3.5,-3.07673 z m -15.48369,-16.55813 c 1.7109,-2.17506 2.05519,-3.96374 1.9729,-10.25 -0.0548,-4.18833 -0.40628,-8.7133 -0.781,-10.05549 -0.60021,-2.14979 -1.06458,-1.5832 -3.90032,4.75881 C 420.28534,205.61591 419.61871,215 422.92742,215 c 1.06008,0 2.86008,-1.18569 4,-2.63486 z m 248.72063,-16.45827 c -0.62314,-5.9619 -3.48142,-14.06782 -5.3727,-15.2367 -1.31331,-0.81166 1.32586,12.94784 3.37193,17.57983 0.91106,2.0625 1.87723,3.75 2.14705,3.75 0.26982,0 0.204,-2.74191 -0.14628,-6.09313 z M 474.09692,182.75411 C 476.42941,176.83654 476.43055,177 474.0567,177 471.25799,177 469,180.80559 469,185.52251 c 0,4.69343 2.26527,8.13982 2.84692,4.33131 0.19081,-1.24936 1.20331,-4.44423 2.25,-7.09971 z m 34.15727,-23.51432 c 14.4352,-14.16811 28.5984,-27.52802 31.47379,-29.68869 2.87538,-2.16066 5.08672,-4.06974 4.91407,-4.24238 -0.85324,-0.85324 -36.23475,13.22325 -37.21223,14.80483 -1.41293,2.28617 0.93593,2.82352 4.01739,0.91907 3.64041,-2.24989 6.09321,-2.58525 7.09173,-0.96961 1.0956,1.77272 -2.44955,4.84067 -15.72379,13.60729 -16.07233,10.61454 -20.45719,15.94135 -22.29117,27.0797 -0.46642,2.83276 -0.3356,4.25 0.39231,4.25 0.60065,0 12.90271,-11.59209 27.3379,-25.76021 z m -67.81089,10.5377 c 0.85618,-1.22237 1.5567,-3.23237 1.5567,-4.46666 0,-2.08634 -0.24614,-1.99803 -3.5,1.25584 -1.925,1.925 -3.5,3.935 -3.5,4.46666 0,1.8507 3.89717,0.95157 5.4433,-1.25584 z M 477,147.77275 c 8.24221,-2.60035 13.80551,-5.3976 26.96123,-13.5562 5.79632,-3.59462 14.13877,-8.28268 18.53877,-10.4179 l 8,-3.88222 -6.5,0.62434 c -20.14578,1.93506 -37.34666,9.9433 -53.5,24.90807 -5.57188,5.1619 -5.78594,5.51628 -3,4.96657 1.65,-0.32557 5.925,-1.51477 9.5,-2.64266 z M 638.42806,136.20484 C 634.61763,133.56751 627.675,128.55121 623,125.05752 611.8996,116.76204 601.85227,111.9783 594.04215,111.27011 590.71897,110.96877 588,111.12625 588,111.62005 c 0,0.49381 2.89289,1.93534 6.42864,3.2034 3.53575,1.26805 12.52932,6.08911 19.98571,10.71344 14.42689,8.94733 19.82737,11.91137 25.53097,14.01262 5.94404,2.18982 5.69921,1.6501 -1.51726,-3.34467 z m -56.90694,-29.59663 c 5.84554,-4.27436 -11.07925,-8.604955 -18.30885,-4.68474 -0.98995,0.53679 -0.87433,1.05869 0.5,2.25691 4.13746,3.60728 14.30099,4.99284 17.80885,2.42783 z M 281,1284.5583 c 0,-1.5027 7.32645,-3.5583 12.68217,-3.5583 5.44929,0 5.65688,0.09 4.01497,1.7314 -1.24608,1.2461 -3.82904,1.8374 -9.21429,2.1093 -4.11557,0.2079 -7.48285,0.081 -7.48285,-0.2824 z m -88.25,-3.3582 c -3.1625,-0.165 -5.75,-0.4353 -5.75,-0.6008 0,-0.1655 0.49879,-1.7317 1.10842,-3.4805 1.51546,-4.3472 5.53594,-6.1617 15.78166,-7.1223 8.73456,-0.8189 13.60171,0.3194 6.49017,1.518 -9.66443,1.6288 -12.36344,3.5947 -8.89126,6.4764 3.07466,2.5517 0.0377,3.667 -8.73899,3.2092 z m 675.64107,-1.0238 c 1.47702,-2.3899 19.11228,-5.8898 20.96629,-4.161 1.1839,1.1039 -2.32772,2.8216 -6.98212,3.4153 -11.02863,1.4067 -14.50733,1.5921 -13.98417,0.7457 z m -548.85079,-3.1111 c -0.31776,-0.5142 0.89318,-2.0327 2.69099,-3.3745 7.27883,-5.4328 10.51675,-5.7339 12.59553,-1.1715 1.01888,2.2362 0.9106,2.4819 -1.09824,2.4916 -1.22571,0.01 -4.43758,0.681 -7.13749,1.5 -5.76464,1.7488 -6.28721,1.7899 -7.05079,0.5544 z M 153,1268.251 c 0,-2.0265 5.05324,-7.2658 8.93726,-9.2664 3.10339,-1.5985 23.16876,-7.2119 23.73943,-6.6412 0.99234,0.9923 -5.23598,4.6773 -10.48432,6.203 -8.59734,2.4993 -11.03667,4.071 -11.97568,7.7162 -0.77438,3.0061 -1.16921,3.2592 -5.52533,3.5422 -4.01507,0.2608 -4.69136,0.037 -4.69136,-1.5538 z m 72.91889,-4.938 c 0.58595,-3.5774 0.80859,-3.7821 3.60283,-3.313 1.63805,0.275 5.55898,0.4721 8.71318,0.4379 5.47974,-0.059 5.66176,0.019 4.09119,1.7543 -1.67102,1.8464 -5.54583,3.1322 -12.92892,4.2903 l -4.10282,0.6436 z m 640.21335,-5.7786 c 1.4556,-1.4556 57.62531,-14.1102 58.54563,-13.1899 0.53658,0.5366 -8.93591,4.2198 -15.67787,6.0961 -5.30333,1.4759 -39.02299,7.5562 -41.91667,7.5583 -0.77916,6e-4 -1.20715,-0.2084 -0.95109,-0.4645 z m -28.25579,-7.8683 c 7.35718,-7.6748 19.31712,-12.0332 45.2435,-16.4875 l 16.38005,-2.8142 -0.0143,-3.2604 -0.0143,-3.2604 4.22626,0.6338 c 2.52902,0.3792 5.097,0.1677 6.39447,-0.5267 2.05177,-1.098 2.09042,-1.0493 0.71968,0.9077 -4.87884,6.9655 -14.9682,11.1106 -36.81173,15.1235 -16.82173,3.0903 -25.6833,5.6867 -33,9.6688 l -6.5,3.5376 3.37645,-3.5222 z m -704.87271,1.7003 c 0.009,-2.1276 4.29775,-7.5742 8.21317,-10.431 5.24761,-3.8289 15.25737,-8.8782 23.28309,-11.745 7.99205,-2.8547 20.46754,-6.1981 22.9799,-6.1586 2.01819,0.032 2.01821,0.033 0.0201,1.5809 -3.70778,2.8718 -12.93048,7.0641 -25,11.364 -14.81514,5.2781 -20.43791,8.069 -25.5359,12.6747 -2.18026,1.9697 -3.96242,3.1915 -3.96036,2.715 z M 132,1229.5447 c 0,-1.2549 15.1803,-9.2157 24.83011,-13.0213 11.48454,-4.5291 22.11359,-7.913 22.77571,-7.2509 0.51468,0.5147 -7.16085,5.9676 -11.60582,8.2451 C 165.27853,1218.9121 133.55253,1230 132.28408,1230 132.12783,1230 132,1229.7951 132,1229.5447 Z m 705.86078,-2.5074 -2.36078,-1.9627 3,-2.4612 c 10.14044,-8.3194 30.50934,-14.6513 67.73082,-21.055 3.09122,-0.5318 3.69125,-1.0204 3.5,-2.8501 -0.20678,-1.9783 0.28971,-2.2411 4.76651,-2.5232 2.74853,-0.1732 6.57353,-0.018 8.5,0.3457 l 3.50267,0.6607 -3.65514,1.8795 c -6.78048,3.4865 -18.24132,6.7434 -39.97548,11.36 -22.59639,4.7997 -29.49937,6.7868 -36.91748,10.627 l -4.4519,2.3047 3.30075,0.7027 c 4.00726,0.8532 4.62098,1.3932 3.85417,3.3915 -0.87751,2.2867 -7.8656,2.0151 -10.79414,-0.4196 z M 117.5,1213.3694 c 2.70195,-2.0685 12.32425,-6.9327 18.75178,-9.4793 13.64158,-5.4047 29.8431,-10.6734 29.4859,-9.5887 -1.72679,5.2437 -24.7598,14.9134 -47.73768,20.0412 -2.42797,0.5419 -2.44237,0.5138 -0.5,-0.9732 z M 102,1202.5505 c 0,-0.9462 12.77379,-9.4518 18.5,-12.3183 3.3,-1.652 10.05,-4.4337 15,-6.1816 10.48629,-3.7028 35.46134,-10.4226 36.15582,-9.7281 0.71394,0.7139 -5.77068,5.4097 -9.78919,7.0888 -1.93915,0.8102 -9.0637,2.8712 -15.83235,4.58 -12.72248,3.212 -16.48096,4.7605 -25.3963,10.4636 -6.71728,4.297 -12.13058,6.5451 -15.7601,6.5451 -1.58284,0 -2.87788,-0.2023 -2.87788,-0.4495 z m 753.07414,-1.4385 c -3.60637,-0.9918 -3.56902,-2.6328 0.12405,-5.4496 5.12136,-3.9062 12.00851,-6.4881 28.4364,-10.6603 15.83283,-4.021 21.6422,-6.3784 24.68901,-10.0183 1.25994,-1.5052 2.4963,-1.9981 4,-1.5948 1.19702,0.321 3.019,0.5898 4.04884,0.5973 1.63017,0.012 1.69486,0.2299 0.5,1.6845 -4.75704,5.7911 -17.10065,10.4838 -39.12244,14.8731 -7.5625,1.5073 -13.75,3.1266 -13.75,3.5984 0,0.4717 -0.0149,1.1952 -0.0331,1.6077 -0.0182,0.4125 1.66493,0.975 3.74032,1.25 2.26955,0.3007 3.88675,1.0978 4.05775,2 0.22174,1.1699 -0.97623,1.5544 -5.44309,1.747 -3.15008,0.1358 -6.42366,0.4236 -7.27463,0.6395 -0.85098,0.2159 -2.63887,0.092 -3.97309,-0.2745 z m -751.91869,-18.3576 c 5.91657,-5.6021 16.11832,-10.5625 31.34455,-15.2407 6.6,-2.0278 16.05111,-4.998 21.00247,-6.6003 10.80253,-3.4959 11.73394,-3.5607 11.31708,-0.7876 -0.27282,1.815 -3.60968,3.2509 -22.81955,9.8192 -12.375,4.2313 -27,9.5998 -32.5,11.9301 -5.5,2.3302 -10.675,4.4731 -11.5,4.762 -0.825,0.2889 0.59495,-1.4584 3.15545,-3.8827 z m 745.06706,-1.3111 c -2.38316,-1.6692 -2.95279,-4.8739 -1.07286,-6.0358 0.71191,-0.44 -0.24141,-1.4242 -2.50375,-2.5848 -2.00937,-1.0309 -4.80407,-3.6971 -6.21044,-5.9249 -1.50069,-2.3773 -3.97783,-4.6443 -5.99625,-5.4876 -1.89157,-0.7904 -3.43921,-1.7443 -3.43921,-2.1199 0,-0.3755 1.14159,-2.3301 2.53688,-4.3435 4.94798,-7.14 15.56533,-12.9468 23.67218,-12.9468 5.88509,0 4.46046,1.8374 -5.42759,7 -4.74039,2.475 -8.99296,4.8959 -9.45018,5.3797 -1.98922,2.1051 17.61996,-0.3495 29.16871,-3.6512 20.28095,-5.7981 25.31387,-5.6774 16.71844,0.4011 -4.65434,3.2914 -10.33129,5.2255 -24.53489,8.359 -14.20592,3.1341 -15.68355,3.5643 -15.68355,4.5668 0,1.3996 8.97679,2.4446 21,2.4446 12.60452,0 18,-1.3852 18,-4.6213 0,-1.6085 0.784,-1.8787 5.45078,-1.8787 2.99793,0 7.72331,-0.4874 10.50086,-1.083 7.39097,-1.5851 8.20262,-0.6409 2.54836,2.9647 -6.13462,3.9118 -15.88411,7.0457 -33.25,10.6881 -7.2875,1.5284 -13.25,3.1362 -13.25,3.5727 0,0.4365 1.2375,1.4508 2.75,2.2541 l 2.75,1.4604 -3.71788,1.5715 c -4.69873,1.9861 -7.73913,1.9903 -10.55961,0.015 z m 16.63573,-0.765 c 1.69497,-2.0517 7.33347,-3.6654 12.83274,-3.6727 6.71802,-0.01 5.86874,1.6606 -1.45531,2.8609 -3.70462,0.6072 -8.08567,1.4081 -9.73567,1.7799 -2.69965,0.6083 -2.86402,0.5114 -1.64176,-0.9681 z M 100,1171.4979 c 0,-1.1375 12.99038,-9.9628 19.5,-13.2478 3.85,-1.9428 18.25,-7.2578 32,-11.8111 13.75,-4.5532 25.7875,-8.5879 26.75,-8.9658 2.72972,-1.0719 2.17043,2.0509 -0.78345,4.3745 -2.20825,1.737 -2.30452,2.0406 -0.75,2.3658 0.9809,0.2051 -1.81655,0.9647 -6.21655,1.6879 -11.04344,1.8151 -21.50858,5.4831 -47.28864,16.5747 C 100.98101,1172.0405 100,1172.4218 100,1171.4979 Z m -4.392962,-11.3796 c -2.59678,-2.8694 -4.104692,-9.189 -2.442236,-10.2353 3.034429,-1.9097 36.481978,-17.1585 46.031298,-20.9857 20.33733,-8.1509 23.76862,-8.862 18.8039,-3.8973 -1.79934,1.7993 -4.36103,2.4992 -7.66519,2.0941 -0.64086,-0.079 -1.44915,1.15 -1.79621,2.7302 -1.30424,5.9381 -8.3286,10.6017 -25.12814,16.6829 -12.91204,4.674 -19.36773,8.3183 -21.68719,12.2428 -2.194737,3.7135 -3.69095,4.0482 -6.116232,1.3683 z m -3.606939,-16.4086 c 1.548006,-1.4143 24.710641,-16.6722 31.499901,-20.7499 8.57817,-5.1521 22.86012,-11.2411 25.22805,-10.7558 1.99373,0.4086 -11.86814,9.3822 -25.72805,16.6553 -10.70556,5.6179 -32.125933,15.8792 -30.999901,14.8504 z m 744.713251,-4.7216 c 0.88765,-3.3943 5.93311,-6.819 11.0414,-7.4944 10.80365,-1.4285 15.34844,-2.6861 16.52693,-4.5731 1.17208,-1.8768 3.76066,-2.5449 5.012,-1.2936 0.34486,0.3449 -0.0361,2.214 -0.84646,4.1536 -0.81041,1.9395 -1.26696,3.733 -1.01454,3.9854 0.25241,0.2524 2.58848,-0.2667 5.19126,-1.1535 5.00849,-1.7066 12.37606,-2.175 12.37606,-0.7868 0,2.5357 -5.55691,5.617 -13.07015,7.2475 -8.04724,1.7463 -8.12506,1.7438 -10.51853,-0.3373 -1.32623,-1.1531 -2.41132,-2.9154 -2.41132,-3.9162 0,-2.6006 -1.00258,-2.3139 -7.61503,2.1779 -4.77947,3.2467 -6.75968,3.9981 -10.54135,4 -4.17371,0 -4.60185,-0.2061 -4.13027,-2.0095 z"
       id="path1004" />
  </g>
</svg>
